<svg xmlns="http://www.w3.org/2000/svg" width="36.427" height="36.436" viewBox="0 0 36.427 36.436">
  <g id="bell" transform="translate(-557.945 -193.937)">
    <path id="Path_735" data-name="Path 735" d="M594.086,223.046l-4.75-5.83-.169-10.267a1.363,1.363,0,0,0,0-.208c-1.5-8.146-6.233-12.8-13.013-12.8-7.157,0-12.909,5.205-14.314,12.778a1.341,1.341,0,0,0,0,.234l-.169,10.41-3.553,5.83a1.328,1.328,0,0,0,1.119,1.978H570.95a5.205,5.205,0,1,0,10.41,0h11.712a1.307,1.307,0,0,0,1.015-2.121Zm-17.931,4.724a2.6,2.6,0,0,1-2.6-2.6h5.205A2.6,2.6,0,0,1,576.155,227.77Zm-14.613-5.205,2.6-4.216a1.3,1.3,0,0,0,.182-.651l.117-10.618c1.184-6.311,5.882-10.54,11.711-10.54,7.326,0,9.669,6.506,10.41,10.54l.182,10.618a1.3,1.3,0,0,0,.286.807l3.305,4.06Z" fill="#1a3a4f"/>
  </g>
</svg>
