<svg xmlns="http://www.w3.org/2000/svg" xmlns:xlink="http://www.w3.org/1999/xlink" width="328.347" height="100.717" viewBox="0 0 328.347 100.717">
  <defs>
    <clipPath id="clip-path">
      <path id="Path_842" data-name="Path 842" d="M1091.677,240.077h35.583V178.8Zm30.644-5.884h-20.159l20.159-34.715Z" transform="translate(-1091.677 -178.799)" fill="none"/>
    </clipPath>
    <clipPath id="clip-path-2">
      <path id="Path_863" data-name="Path 863" d="M1068.781,149.022a20.052,20.052,0,1,1-20.052-20.052A20.053,20.053,0,0,1,1068.781,149.022Z" transform="translate(-1028.676 -128.97)" fill="none"/>
    </clipPath>
  </defs>
  <g id="Group_298" data-name="Group 298" transform="translate(-941.295 -114.522)">
    <ellipse id="Ellipse_36" data-name="Ellipse 36" cx="164.173" cy="5.229" rx="164.173" ry="5.229" transform="translate(941.295 204.781)" fill="#dad4f9"/>
    <g id="Group_297" data-name="Group 297" transform="translate(982.309 114.522)">
      <g id="Group_220" data-name="Group 220" transform="translate(196.66 29.332)">
        <g id="Group_219" data-name="Group 219">
          <path id="Path_814" data-name="Path 814" d="M1387.081,171.822v64.7h14.924v-64.7A13.512,13.512,0,0,0,1387.081,171.822Z" transform="translate(-1387.081 -169.537)" fill="#ffd11f"/>
          <g id="Group_218" data-name="Group 218" transform="translate(0 5.015)">
            <rect id="Rectangle_136" data-name="Rectangle 136" width="14.924" height="4.363" fill="#8167c6"/>
            <rect id="Rectangle_137" data-name="Rectangle 137" width="14.924" height="4.363" transform="translate(0 51.366)" fill="#8167c6"/>
          </g>
        </g>
        <path id="Path_815" data-name="Path 815" d="M1401.078,169.541v66.984h7.462v-64.7A13.1,13.1,0,0,0,1401.078,169.541Z" transform="translate(-1393.615 -169.539)" fill="#5b2e15" opacity="0.1"/>
      </g>
      <g id="Group_226" data-name="Group 226" transform="translate(211.716 13.051)">
        <g id="Group_225" data-name="Group 225">
          <path id="Path_816" data-name="Path 816" d="M1415.32,141.285v80.983h14.925V141.285A13.513,13.513,0,0,0,1415.32,141.285Z" transform="translate(-1415.32 -139)" fill="#553d89"/>
          <g id="Group_224" data-name="Group 224" transform="translate(0 5.015)">
            <rect id="Rectangle_138" data-name="Rectangle 138" width="14.925" height="3.461" fill="#8167c6"/>
            <g id="Group_221" data-name="Group 221" transform="translate(0 6.313)">
              <rect id="Rectangle_139" data-name="Rectangle 139" width="14.925" height="3.46" fill="#8167c6"/>
            </g>
            <g id="Group_223" data-name="Group 223" transform="translate(0 63.956)">
              <rect id="Rectangle_140" data-name="Rectangle 140" width="14.925" height="3.461" fill="#8167c6"/>
              <g id="Group_222" data-name="Group 222" transform="translate(0 6.314)">
                <rect id="Rectangle_141" data-name="Rectangle 141" width="14.925" height="3.46" fill="#8167c6"/>
              </g>
            </g>
          </g>
        </g>
        <path id="Path_817" data-name="Path 817" d="M1429.317,139v83.265h7.462V141.286A13.088,13.088,0,0,0,1429.317,139Z" transform="translate(-1421.854 -139.001)" fill="#5b2e15" opacity="0.1"/>
      </g>
      <g id="Group_229" data-name="Group 229" transform="translate(226.771 40.186)">
        <g id="Group_228" data-name="Group 228">
          <path id="Path_818" data-name="Path 818" d="M1443.559,192.181v53.847h14.925V192.181A13.514,13.514,0,0,0,1443.559,192.181Z" transform="translate(-1443.559 -189.896)" fill="#ff8dce"/>
          <rect id="Rectangle_142" data-name="Rectangle 142" width="7.576" height="18.297" transform="translate(3.675 5.21)" fill="#553d89"/>
          <g id="Group_227" data-name="Group 227" transform="translate(0 45.527)">
            <rect id="Rectangle_143" data-name="Rectangle 143" width="14.925" height="2.182" fill="#553d89"/>
            <rect id="Rectangle_144" data-name="Rectangle 144" width="14.925" height="2.182" transform="translate(0 3.799)" fill="#553d89"/>
          </g>
        </g>
        <path id="Path_819" data-name="Path 819" d="M1457.556,189.9V246.03h7.462V192.182A13.1,13.1,0,0,0,1457.556,189.9Z" transform="translate(-1450.093 -189.898)" fill="#5b2e15" opacity="0.1"/>
      </g>
      <g id="Group_244" data-name="Group 244" transform="translate(90.155 32.421)">
        <g id="Group_243" data-name="Group 243">
          <g id="Group_230" data-name="Group 230">
            <path id="Path_820" data-name="Path 820" d="M1275.557,195.7h-88.239v49.782h39.252a5.265,5.265,0,0,0,9.734,0h39.253Z" transform="translate(-1187.318 -184.839)" fill="#553d89"/>
            <path id="Path_821" data-name="Path 821" d="M1233.109,186.189h.009s-1.073-10.858-10.547-10.858h-31.479v57.9h34.452a7.678,7.678,0,0,0,7.655-7.655V187.3A7.634,7.634,0,0,0,1233.109,186.189Z" transform="translate(-1189.08 -175.332)" fill="#fff"/>
            <path id="Path_822" data-name="Path 822" d="M1270.16,186.189h-.008s1.073-10.858,10.546-10.858h31.479v57.9h-34.452a7.678,7.678,0,0,1-7.655-7.655V187.3A7.583,7.583,0,0,1,1270.16,186.189Z" transform="translate(-1225.95 -175.332)" fill="#fff"/>
          </g>
          <g id="Group_242" data-name="Group 242" transform="translate(7.67 9.01)" opacity="0.1">
            <g id="Group_241" data-name="Group 241">
              <g id="Group_235" data-name="Group 235">
                <g id="Group_231" data-name="Group 231">
                  <rect id="Rectangle_145" data-name="Rectangle 145" width="30.909" height="1.656" fill="#4f57ff"/>
                  <rect id="Rectangle_146" data-name="Rectangle 146" width="30.909" height="1.655" transform="translate(0 5.52)" fill="#4f57ff"/>
                </g>
                <g id="Group_232" data-name="Group 232" transform="translate(0 11.039)">
                  <rect id="Rectangle_147" data-name="Rectangle 147" width="30.909" height="1.656" fill="#4f57ff"/>
                  <rect id="Rectangle_148" data-name="Rectangle 148" width="30.909" height="1.655" transform="translate(0 5.52)" fill="#4f57ff"/>
                </g>
                <g id="Group_233" data-name="Group 233" transform="translate(0 22.078)">
                  <rect id="Rectangle_149" data-name="Rectangle 149" width="30.909" height="1.656" fill="#4f57ff"/>
                  <rect id="Rectangle_150" data-name="Rectangle 150" width="30.909" height="1.656" transform="translate(0 5.52)" fill="#4f57ff"/>
                </g>
                <g id="Group_234" data-name="Group 234" transform="translate(0 33.118)">
                  <rect id="Rectangle_151" data-name="Rectangle 151" width="30.909" height="1.655" fill="#4f57ff"/>
                  <rect id="Rectangle_152" data-name="Rectangle 152" width="30.909" height="1.656" transform="translate(0 5.519)" fill="#4f57ff"/>
                </g>
              </g>
              <g id="Group_240" data-name="Group 240" transform="translate(42.335)">
                <g id="Group_236" data-name="Group 236">
                  <rect id="Rectangle_153" data-name="Rectangle 153" width="30.909" height="1.656" fill="#4f57ff"/>
                  <rect id="Rectangle_154" data-name="Rectangle 154" width="30.909" height="1.655" transform="translate(0 5.52)" fill="#4f57ff"/>
                </g>
                <g id="Group_237" data-name="Group 237" transform="translate(0 11.039)">
                  <rect id="Rectangle_155" data-name="Rectangle 155" width="30.909" height="1.656" fill="#4f57ff"/>
                  <rect id="Rectangle_156" data-name="Rectangle 156" width="30.909" height="1.655" transform="translate(0 5.52)" fill="#4f57ff"/>
                </g>
                <g id="Group_238" data-name="Group 238" transform="translate(0 22.078)">
                  <rect id="Rectangle_157" data-name="Rectangle 157" width="30.909" height="1.656" fill="#4f57ff"/>
                  <rect id="Rectangle_158" data-name="Rectangle 158" width="30.909" height="1.656" transform="translate(0 5.52)" fill="#4f57ff"/>
                </g>
                <g id="Group_239" data-name="Group 239" transform="translate(0 33.118)">
                  <rect id="Rectangle_159" data-name="Rectangle 159" width="30.909" height="1.655" fill="#4f57ff"/>
                  <rect id="Rectangle_160" data-name="Rectangle 160" width="30.909" height="1.656" transform="translate(0 5.519)" fill="#4f57ff"/>
                </g>
              </g>
            </g>
          </g>
        </g>
        <path id="Path_823" data-name="Path 823" d="M1270.069,190.708v47.348l1.387-1.848,1.386,1.848V182.631A12.353,12.353,0,0,0,1270.069,190.708Z" transform="translate(-1225.95 -178.739)" fill="#ff8dce"/>
      </g>
      <g id="Group_257" data-name="Group 257" transform="translate(170.848 21.588)">
        <g id="Group_249" data-name="Group 249" transform="translate(8.456)">
          <path id="Path_824" data-name="Path 824" d="M1361.18,155.012l-6.652,67.306,7.227.714,6.651-67.307Zm3.176,4.779a1.536,1.536,0,1,1,1.679-1.377A1.536,1.536,0,0,1,1364.356,159.791Z" transform="translate(-1354.528 -155.012)" fill="#553d89"/>
          <g id="Group_248" data-name="Group 248" transform="translate(4.626 6.169)">
            <g id="Group_245" data-name="Group 245" transform="translate(3.856 0)">
              <rect id="Rectangle_161" data-name="Rectangle 161" width="1.307" height="4.705" transform="translate(0 1.301) rotate(-84.354)" fill="#8167c6"/>
              <rect id="Rectangle_162" data-name="Rectangle 162" width="1.307" height="2.803" transform="matrix(0.098, -0.995, 0.995, 0.098, 1.507, 5.391)" fill="#8167c6"/>
              <rect id="Rectangle_163" data-name="Rectangle 163" width="1.306" height="2.804" transform="translate(1.121 9.292) rotate(-84.373)" fill="#8167c6"/>
              <rect id="Rectangle_164" data-name="Rectangle 164" width="1.307" height="2.804" transform="translate(0.735 13.193) rotate(-84.352)" fill="#8167c6"/>
              <rect id="Rectangle_165" data-name="Rectangle 165" width="1.307" height="2.804" transform="translate(0.35 17.095) rotate(-84.341)" fill="#8167c6"/>
            </g>
            <g id="Group_246" data-name="Group 246" transform="translate(1.928 19.509)">
              <rect id="Rectangle_166" data-name="Rectangle 166" width="1.307" height="4.705" transform="matrix(0.098, -0.995, 0.995, 0.098, 0, 1.301)" fill="#8167c6"/>
              <rect id="Rectangle_167" data-name="Rectangle 167" width="1.307" height="2.804" transform="matrix(0.098, -0.995, 0.995, 0.098, 1.507, 5.39)" fill="#8167c6"/>
              <rect id="Rectangle_168" data-name="Rectangle 168" width="1.307" height="2.804" transform="translate(1.121 9.292) rotate(-84.362)" fill="#8167c6"/>
              <rect id="Rectangle_169" data-name="Rectangle 169" width="1.306" height="2.803" transform="translate(0.736 13.193) rotate(-84.361)" fill="#8167c6"/>
              <rect id="Rectangle_170" data-name="Rectangle 170" width="1.306" height="2.804" transform="matrix(0.098, -0.995, 0.995, 0.098, 0.35, 17.095)" fill="#8167c6"/>
            </g>
            <g id="Group_247" data-name="Group 247" transform="translate(0 39.018)">
              <rect id="Rectangle_171" data-name="Rectangle 171" width="1.307" height="4.705" transform="matrix(0.098, -0.995, 0.995, 0.098, 0, 1.3)" fill="#8167c6"/>
              <rect id="Rectangle_172" data-name="Rectangle 172" width="1.306" height="2.804" transform="matrix(0.099, -0.995, 0.995, 0.099, 1.507, 5.389)" fill="#8167c6"/>
              <rect id="Rectangle_173" data-name="Rectangle 173" width="1.307" height="2.804" transform="translate(1.121 9.291) rotate(-84.352)" fill="#8167c6"/>
              <rect id="Rectangle_174" data-name="Rectangle 174" width="1.307" height="2.804" transform="translate(0.736 13.193) rotate(-84.361)" fill="#8167c6"/>
              <rect id="Rectangle_175" data-name="Rectangle 175" width="1.307" height="2.803" transform="translate(0.351 17.095) rotate(-84.362)" fill="#8167c6"/>
            </g>
          </g>
        </g>
        <g id="Group_255" data-name="Group 255" transform="translate(2.404 27.099)">
          <g id="Group_254" data-name="Group 254">
            <g id="Group_253" data-name="Group 253">
              <g id="Group_252" data-name="Group 252">
                <g id="Group_250" data-name="Group 250" transform="translate(0.003 3.798)">
                  <rect id="Rectangle_176" data-name="Rectangle 176" width="3.394" height="31.904" transform="matrix(0.99, -0.139, 0.139, 0.99, 0, 0.472)" fill="#ffd11f"/>
                  <rect id="Rectangle_177" data-name="Rectangle 177" width="1.025" height="31.903" transform="translate(1.156 0.311) rotate(-8.063)" fill="#ffaf22"/>
                </g>
                <g id="Group_251" data-name="Group 251">
                  <path id="Path_825" data-name="Path 825" d="M1346.538,209.639l-3.36.472,1.112-4.271Z" transform="translate(-1343.177 -205.84)" fill="#fff"/>
                  <path id="Path_826" data-name="Path 826" d="M1344.219,207.977l1.681-.236-1.125-1.9Z" transform="translate(-1343.664 -205.84)" fill="#4f57ff"/>
                </g>
              </g>
              <path id="Path_827" data-name="Path 827" d="M1351.891,275.076l3.362-.472-.375-2.386-3.362.473Z" transform="translate(-1347.07 -236.829)" fill="#fca7ce"/>
            </g>
          </g>
        </g>
        <g id="Group_256" data-name="Group 256" transform="translate(0 44.786)">
          <path id="Path_828" data-name="Path 828" d="M1357.54,268.958h-16.848l-2.025-29.945h20.9Z" transform="translate(-1338.668 -239.013)" fill="#ff8dce"/>
          <path id="Path_829" data-name="Path 829" d="M1357.88,239.013c-1.8,15.866-10.623,22.153-16.1,24.551l.365,5.394h16.848l2.025-29.945Z" transform="translate(-1340.121 -239.013)" fill="#5b2e15" opacity="0.1"/>
        </g>
      </g>
      <g id="Group_267" data-name="Group 267" transform="translate(0 58.514)">
        <g id="Group_260" data-name="Group 260" transform="translate(12.688 24.708)">
          <path id="Path_830" data-name="Path 830" d="M1097.215,270.73h-26.808a6.148,6.148,0,1,1,0,12.287h26.808a6.148,6.148,0,1,0,0-12.287Z" transform="translate(-1055.272 -270.668)" fill="#553d89"/>
          <g id="Group_259" data-name="Group 259">
            <path id="Path_831" data-name="Path 831" d="M1066.67,272.327h-23.091a5.3,5.3,0,1,1,0,10.583h23.091a5.3,5.3,0,1,0,0-10.583Z" transform="translate(-1042.748 -271.414)" fill="#fff"/>
            <g id="Group_258" data-name="Group 258">
              <path id="Path_832" data-name="Path 832" d="M1042.851,282.971h23.085c3.12,0,6.2-2.452,6.347-5.7a6.346,6.346,0,0,0-5.867-6.587,31.127,31.127,0,0,0-3.765-.02h-19.8a.86.86,0,0,0,0,1.72h23.085a4.43,4.43,0,0,1,1.163,8.723,15.838,15.838,0,0,1-4.2.14h-20.045a.86.86,0,0,0,0,1.72Z" transform="translate(-1042.02 -270.614)" fill="#8167c6"/>
            </g>
          </g>
        </g>
        <g id="Group_263" data-name="Group 263" transform="translate(1.387 12.413)">
          <path id="Path_833" data-name="Path 833" d="M1027.209,247.669h26.808a6.148,6.148,0,1,0,0,12.287h-26.808a6.148,6.148,0,1,1,0-12.287Z" transform="translate(-1020.823 -247.607)" fill="#ff8dce"/>
          <g id="Group_262" data-name="Group 262" transform="translate(18.059)">
            <path id="Path_834" data-name="Path 834" d="M1061.784,249.267h36.955a5.3,5.3,0,1,0,0,10.583h-36.955a5.3,5.3,0,1,1,0-10.583Z" transform="translate(-1055.436 -248.353)" fill="#fff"/>
            <g id="Group_261" data-name="Group 261">
              <path id="Path_835" data-name="Path 835" d="M1098,259.91h-36.949c-3.12,0-6.2-2.452-6.347-5.7a6.346,6.346,0,0,1,5.868-6.586,30.9,30.9,0,0,1,3.765-.02H1098a.86.86,0,0,1,0,1.72h-36.949a4.43,4.43,0,0,0-1.163,8.724,15.817,15.817,0,0,0,4.2.14H1098a.86.86,0,0,1,0,1.719Z" transform="translate(-1054.695 -247.553)" fill="#f471c2"/>
            </g>
          </g>
        </g>
        <g id="Group_266" data-name="Group 266">
          <path id="Path_836" data-name="Path 836" d="M1073.418,224.388H1046.61a6.148,6.148,0,1,1,0,12.287h26.808a6.148,6.148,0,1,0,0-12.287Z" transform="translate(-1031.475 -224.326)" fill="#ffd11f"/>
          <g id="Group_265" data-name="Group 265">
            <path id="Path_837" data-name="Path 837" d="M1042.872,225.986h-23.091a5.3,5.3,0,1,1,0,10.583h23.091a5.3,5.3,0,1,0,0-10.583Z" transform="translate(-1018.95 -225.072)" fill="#fff"/>
            <g id="Group_264" data-name="Group 264">
              <path id="Path_838" data-name="Path 838" d="M1019.053,236.628h23.085c3.119,0,6.2-2.453,6.347-5.7a6.346,6.346,0,0,0-5.867-6.587,31.015,31.015,0,0,0-3.765-.02h-19.8a.861.861,0,0,0,0,1.72h23.085a4.43,4.43,0,0,1,1.163,8.723,15.836,15.836,0,0,1-4.2.141h-20.045a.86.86,0,0,0,0,1.719Z" transform="translate(-1018.222 -224.271)" fill="#efbb14"/>
            </g>
          </g>
        </g>
      </g>
      <g id="Group_272" data-name="Group 272" transform="translate(54.328 28.065)">
        <g id="Group_268" data-name="Group 268">
          <rect id="Rectangle_178" data-name="Rectangle 178" width="46.742" height="67.359" fill="#ff8dce"/>
          <rect id="Rectangle_179" data-name="Rectangle 179" width="5.253" height="67.359" fill="#5b2e15" opacity="0.1"/>
        </g>
        <g id="Group_271" data-name="Group 271" transform="translate(25.452 1.954)">
          <g id="Group_269" data-name="Group 269">
            <path id="Path_839" data-name="Path 839" d="M1167.965,171.664l17.452,24.66c.427.6,1.429.026,1-.583q-8.725-12.331-17.452-24.66c-.426-.6-1.429-.028-1,.583Z" transform="translate(-1167.86 -170.825)" fill="#553d89"/>
          </g>
          <g id="Group_270" data-name="Group 270" transform="translate(0 37.699)">
            <path id="Path_840" data-name="Path 840" d="M1185.418,241.789l-17.452,24.66c-.432.609.571,1.186,1,.583l17.452-24.66c.432-.61-.57-1.187-1-.583Z" transform="translate(-1167.86 -241.534)" fill="#553d89"/>
          </g>
        </g>
      </g>
      <g id="Group_288" data-name="Group 288" transform="translate(39.163 34.27)">
        <path id="Path_841" data-name="Path 841" d="M1091.677,240.077h35.583V178.8Zm30.644-5.884h-20.159l20.159-34.715Z" transform="translate(-1091.677 -178.799)" fill="#ffd11f"/>
        <g id="Group_287" data-name="Group 287">
          <g id="Group_286" data-name="Group 286" clip-path="url(#clip-path)">
            <g id="Group_285" data-name="Group 285" transform="translate(2.665 7.196)">
              <g id="Group_276" data-name="Group 276" transform="translate(0 50.279)">
                <g id="Group_273" data-name="Group 273" transform="translate(23.54 1.797)">
                  <rect id="Rectangle_180" data-name="Rectangle 180" width="1.307" height="2.803" transform="matrix(1, -0.009, 0.009, 1, 7.841, 0.012)" fill="#ffaf22"/>
                  <rect id="Rectangle_181" data-name="Rectangle 181" width="1.307" height="2.804" transform="translate(3.921 0.046) rotate(-0.5)" fill="#ffaf22"/>
                  <rect id="Rectangle_182" data-name="Rectangle 182" width="1.307" height="2.803" transform="translate(0 0.082) rotate(-0.517)" fill="#ffaf22"/>
                </g>
                <g id="Group_274" data-name="Group 274" transform="translate(3.938 0)">
                  <rect id="Rectangle_183" data-name="Rectangle 183" width="1.307" height="4.705" transform="translate(15.666 0.012) rotate(-0.51)" fill="#ffaf22"/>
                  <rect id="Rectangle_184" data-name="Rectangle 184" width="1.307" height="2.804" transform="translate(11.762 1.948) rotate(-0.506)" fill="#ffaf22"/>
                  <rect id="Rectangle_185" data-name="Rectangle 185" width="1.306" height="2.804" transform="translate(7.841 1.983) rotate(-0.506)" fill="#ffaf22"/>
                  <rect id="Rectangle_186" data-name="Rectangle 186" width="1.307" height="2.804" transform="translate(3.921 2.018) rotate(-0.51)" fill="#ffaf22"/>
                  <rect id="Rectangle_187" data-name="Rectangle 187" width="1.306" height="2.804" transform="translate(0 2.053) rotate(-0.522)" fill="#ffaf22"/>
                </g>
                <g id="Group_275" data-name="Group 275" transform="translate(0 0.175)">
                  <rect id="Rectangle_188" data-name="Rectangle 188" width="1.307" height="4.705" transform="translate(0 0.012) rotate(-0.51)" fill="#ffaf22"/>
                </g>
              </g>
              <g id="Group_284" data-name="Group 284" transform="translate(28.951 0)">
                <g id="Group_280" data-name="Group 280" transform="translate(0)">
                  <g id="Group_277" data-name="Group 277" transform="translate(1.797)">
                    <rect id="Rectangle_189" data-name="Rectangle 189" width="2.802" height="1.307" transform="translate(0 0.025) rotate(-0.511)" fill="#ffaf22"/>
                    <rect id="Rectangle_190" data-name="Rectangle 190" width="2.804" height="1.307" transform="translate(0.035 3.945) rotate(-0.5)" fill="#ffaf22"/>
                    <rect id="Rectangle_191" data-name="Rectangle 191" width="2.803" height="1.307" transform="matrix(1, -0.009, 0.009, 1, 0.07, 7.866)" fill="#ffaf22"/>
                  </g>
                  <g id="Group_278" data-name="Group 278" transform="translate(0 11.762)">
                    <rect id="Rectangle_192" data-name="Rectangle 192" width="4.705" height="1.307" transform="translate(0 0.042) rotate(-0.514)" fill="#ffaf22"/>
                    <rect id="Rectangle_193" data-name="Rectangle 193" width="2.803" height="1.306" transform="translate(1.936 3.946) rotate(-0.51)" fill="#ffaf22"/>
                    <rect id="Rectangle_194" data-name="Rectangle 194" width="2.803" height="1.307" transform="translate(1.972 7.867) rotate(-0.51)" fill="#ffaf22"/>
                    <rect id="Rectangle_195" data-name="Rectangle 195" width="2.803" height="1.307" transform="translate(2.006 11.787) rotate(-0.5)" fill="#ffaf22"/>
                    <rect id="Rectangle_196" data-name="Rectangle 196" width="2.803" height="1.306" transform="translate(2.041 15.709) rotate(-0.533)" fill="#ffaf22"/>
                  </g>
                  <g id="Group_279" data-name="Group 279" transform="translate(0.175 31.365)">
                    <rect id="Rectangle_197" data-name="Rectangle 197" width="4.705" height="1.307" transform="translate(0 0.042) rotate(-0.507)" fill="#ffaf22"/>
                  </g>
                </g>
                <g id="Group_283" data-name="Group 283" transform="translate(0 35.121)">
                  <g id="Group_281" data-name="Group 281" transform="translate(1.796 0)">
                    <rect id="Rectangle_198" data-name="Rectangle 198" width="2.802" height="1.306" transform="translate(0 0.025) rotate(-0.521)" fill="#ffaf22"/>
                    <rect id="Rectangle_199" data-name="Rectangle 199" width="2.804" height="1.307" transform="translate(0.035 3.945) rotate(-0.521)" fill="#ffaf22"/>
                    <rect id="Rectangle_200" data-name="Rectangle 200" width="2.803" height="1.307" transform="translate(0.07 7.866) rotate(-0.511)" fill="#ffaf22"/>
                  </g>
                  <g id="Group_282" data-name="Group 282" transform="translate(0 11.762)">
                    <rect id="Rectangle_201" data-name="Rectangle 201" width="4.705" height="1.306" transform="matrix(1, -0.009, 0.009, 1, 0, 0.042)" fill="#ffaf22"/>
                  </g>
                </g>
              </g>
            </g>
          </g>
        </g>
      </g>
      <g id="Group_296" data-name="Group 296" transform="translate(0.692 0)">
        <g id="Group_291" data-name="Group 291">
          <g id="Group_289" data-name="Group 289" transform="translate(0 2.822)">
            <path id="Path_843" data-name="Path 843" d="M1044.454,167.559a23.076,23.076,0,0,1-22.81-22.811c-.154-12.551,10.493-22.66,22.81-22.811a1.062,1.062,0,0,0,0-2.122,25.236,25.236,0,0,0-24.932,24.933c-.169,13.707,11.48,24.768,24.932,24.933a1.062,1.062,0,0,0,0-2.122Z" transform="translate(-1019.52 -119.815)" fill="#553d89"/>
          </g>
          <g id="Group_290" data-name="Group 290" transform="translate(23.873)">
            <path id="Path_844" data-name="Path 844" d="M1064.3,115.548v53.984a1.062,1.062,0,0,0,2.122,0V115.548a1.062,1.062,0,0,0-2.122,0Z" transform="translate(-1064.297 -114.522)" fill="#553d89"/>
          </g>
          <path id="Path_845" data-name="Path 845" d="M1067.109,220.5a7.219,7.219,0,0,0-13.213,0Z" transform="translate(-1035.568 -161.985)" fill="#553d89"/>
        </g>
        <g id="Group_295" data-name="Group 295" transform="translate(4.882 7.703)">
          <path id="Path_846" data-name="Path 846" d="M1068.781,149.022a20.052,20.052,0,1,1-20.052-20.052A20.053,20.053,0,0,1,1068.781,149.022Z" transform="translate(-1028.676 -128.97)" fill="#ff8dce"/>
          <g id="Group_294" data-name="Group 294">
            <g id="Group_293" data-name="Group 293" clip-path="url(#clip-path-2)">
              <g id="Group_292" data-name="Group 292" transform="translate(-15.825 0.022)">
                <path id="Path_847" data-name="Path 847" d="M1020.245,161.067a1.367,1.367,0,0,1-.164,1.091,1.976,1.976,0,0,0-.747,1.815,5.5,5.5,0,0,0,1.531,2.664c.585.323,1.334.486,1.251,1.343s-.541,2.823-.595,3.491-.748,3.579-.53,4.846a1.84,1.84,0,0,0,1.617,1.654c.338-.06-.354-1.669,0-2.2a5.221,5.221,0,0,0,1-1.566,1.767,1.767,0,0,1,1.362-1.272c.546-.122.4-.785,1-1.285s1.441-1.311,1.522-1.86.229-1.206,1.048-1.152,1.325-.453,1.451-1.414a3.413,3.413,0,0,1,.579-1.791.875.875,0,0,0-.171-1.4c-.688-.493-1.534-.172-2.1-.624a2.547,2.547,0,0,0-1.458-.516c-.262-.015.1-1.362-.779-1.573s-1.178-.288-1.512-.66a3.05,3.05,0,0,0-2.221-.553,8.867,8.867,0,0,1-1.662.353c-.562.013-.67-.152-1.221-.16s-.988-.256-.912-.737-.382-.657-.962-.9-.352-.719-.933-.593a1.383,1.383,0,0,1-1.364-1.152c.047-.48.041-2.048,1.067-1.811a10.01,10.01,0,0,1,2.785.914c.622.4-.088-1.144.293-1.468s1.57-.507,1.607-1.014a3.087,3.087,0,0,1,1.3-2.2c.879-.5,1.783-.5,2.181-.83s1.348-1.715,1.084-2.22a18.4,18.4,0,0,0-1.521-2.047c-.406-.5-1.043-.077-1.6-.159s-.486-.946-.988-1.019-1.3.215-1.274.735.492,1.381.068,1.67-.678.691-1.34.142-1.951-.825-2.332-1.369-.516-1.119.474-1.716,2.2-1.325,2.2-1.709-.555-.962-.933-.9-.269.684-.741.639-.91-1.325-1.383-1.517-.107,1.385-.724,1.517a4.889,4.889,0,0,1-2.193,0,3.782,3.782,0,0,0-1.856,0c-.664.106-.784-.052-1.509-.315a4.291,4.291,0,0,0-2.418-.292c-1.442.106-2.173.35-2.934,0s-2.206.1-3.238.066-2.364.546-2.366,1.3c0,1.6,3.375,2.07,4.53,2.272a4.146,4.146,0,0,1,2.924,2c.375.949,1.69,1.177,1.918,2.265a17.927,17.927,0,0,0,.708,3.465c.354.557,2.681,1.822,3.137,2.733a7.451,7.451,0,0,0,2.165,2.3c.719.534,2.413.72,3.028,1.091S1018.92,161.364,1020.245,161.067Z" transform="translate(-998.995 -134.618)" fill="#8167c6"/>
                <path id="Path_848" data-name="Path 848" d="M1017.32,137.982a1.062,1.062,0,0,0-.82,1.129c.062.518.568.664,1.022.6a1.654,1.654,0,0,1,1.519.558c.236.457,1.278.281,2.08.21s1.566-.271,1.087-.6-.428-.824-.736-1.087-.589,0-1.195.066a4.37,4.37,0,0,1-1.967-.489C1017.827,138.137,1017.855,137.828,1017.32,137.982Z" transform="translate(-1007.164 -133.18)" fill="#8167c6"/>
                <path id="Path_849" data-name="Path 849" d="M1018.554,135.131c-.6.141-1.358.6-1.155.791a1.321,1.321,0,0,0,1.567-.192c.467-.533.808-.952.483-.806A3.826,3.826,0,0,1,1018.554,135.131Z" transform="translate(-1007.571 -131.758)" fill="#8167c6"/>
                <path id="Path_850" data-name="Path 850" d="M1021.187,136.332c-.233.116-.634.606-.129.8a2.814,2.814,0,0,0,2.023-.107c.4-.306.126-.837-.177-1A3.549,3.549,0,0,0,1021.187,136.332Z" transform="translate(-1009.181 -132.263)" fill="#8167c6"/>
                <path id="Path_851" data-name="Path 851" d="M1038.364,129.333a5.765,5.765,0,0,0-2.6-.28c-1.264.126-2.7.709-3.574.792a2.629,2.629,0,0,0-2.007.934c-.262.508,1.429.977,1.787,1.369a2.9,2.9,0,0,0,2.466.479c.772-.3,1.089-1.236,1.81-1.611S1038.649,129.41,1038.364,129.333Z" transform="translate(-1013.542 -129.012)" fill="#8167c6"/>
                <path id="Path_852" data-name="Path 852" d="M1027.793,133.257a1.987,1.987,0,0,0-1.362.162c-.248.136-.061.719-.073,1.053a2.329,2.329,0,0,0,.2,1.519c.358.534.277,1.3,1.05,1.314a4.028,4.028,0,0,0,1.957-.778c.552-.3,2.375-.254,2.729-.769s-.223-.447-1.175-.494a3.275,3.275,0,0,1-2.083-1.013C1028.444,133.748,1028.145,133.347,1027.793,133.257Z" transform="translate(-1011.743 -130.967)" fill="#8167c6"/>
                <path id="Path_853" data-name="Path 853" d="M1034.363,139.141c-.99.123-1.072.686-.915,1.164s1.393-.277,1.784,0,1.155.95.826,1.5.4,1,1.323,1.1,1.789.523,2.238.009.612-1.077-.274-1.515-.94-1.091-1.482-1.435-1.24-1.1-1.866-1.065A14.119,14.119,0,0,0,1034.363,139.141Z" transform="translate(-1015.05 -133.627)" fill="#8167c6"/>
                <path id="Path_854" data-name="Path 854" d="M1046.39,129.571c-.732.217-2.481.951-2.686,1.4s-1.113.574-1.237,1.066.734.547,1.872.8,1.555.647,1.659,1.474,1.644,1.012,1.27,1.955-.615,1.484-.183,2.246,1.62,1.7,1.954,1.6.884-2.173,1.776-2.6,3.4-1.173,3.514-1.436a19.275,19.275,0,0,0,.5-3.718c-.091-.537,1.5-1.387,1.551-2.012s-1.675-.265-2.48-.4-1.464-.8-2.646-.87A23.5,23.5,0,0,0,1046.39,129.571Z" transform="translate(-1019.284 -129.04)" fill="#8167c6"/>
                <path id="Path_855" data-name="Path 855" d="M1071.45,148.842s-1.457-.176-1.63,0-.1.939-.2,1.187-.089.722.114.757.549.328.7.271a8.146,8.146,0,0,1,.984-.369c.3-.069.316-.454.544-.774s.227-.891,1.043-1.1a1.711,1.711,0,0,1,1.535.126c.189.186,1.168.577,1.167,1.015s.647-.132.6-.281a7.2,7.2,0,0,0-1.091-.943c-.246-.2-.321-.6-.106-.661s.922.8,1.1.871.494.346.455.575a2.32,2.32,0,0,0,.619,1.276c.194.033.556-.19.475-.391s-.427-.537-.183-.687.884-.029,1.175-.2-.15-.388.1-.8.418-1.042.74-.956.321.9.549.858a1.472,1.472,0,0,1,1.444.171c.515.495.365.672-.167.731s-1.543-.106-1.8.084-1.195.31-1.2.525.239.827.557.769a9.2,9.2,0,0,1,1.723-.146c.121.066-.328,1.511-.667,1.572s-.616.078-.933.132a2.733,2.733,0,0,1-1.454-.3c-.341-.227-.872.022-1.435.214a1.9,1.9,0,0,1-1.512-.441c-.253-.189.038-.638,0-.838s-.986-.461-1.365-.3a16.589,16.589,0,0,1-1.875.446,3.975,3.975,0,0,1-.945-.059c-.076.027-.218.54-.569.659s-.355.568-.557,1.038-1.151,1.138-1.29,2.125a3.989,3.989,0,0,0,.506,2.743,2.253,2.253,0,0,0,2.1,1.089c.886-.026,2.492-.3,2.985,0a1.339,1.339,0,0,1,.4,1.5c-.139.518.152.923.7,1.772s.81,1.251.482,1.895a1.642,1.642,0,0,0-.051,1.719,3.639,3.639,0,0,1,.291,1.621c.05.645.48,2.175,1.024,2.251a2.925,2.925,0,0,0,2.049-.974,12.994,12.994,0,0,1,1.556-2c.481-.341.244-1.227.5-1.513s1.135-.776,1.074-1.548-.377-1.783,0-2.453,1.931-1.748,2.128-2.265.6-1.2.237-1.174a5.234,5.234,0,0,1-1.353.124c-.7-.062-1.1-1.31-1.317-1.546a5.835,5.835,0,0,1-1-1.818c.006-.351-.569-1.391-.278-1.4s1.029,1.276,1.267,1.669a13.283,13.283,0,0,1,.9,1.717c.184.5.463.686.736.639a13.714,13.714,0,0,0,2.938-1.521c.324-.372.49-1.016.144-1.172s-.525-.614-.617-.473-.4.441-.652.431-.968-.929-1.087-1.242a.429.429,0,0,1,.342-.554c.139.013.562.982,1.117.974s.61.2,1,.392,2.042-.2,2.224.237.7,1.154,1.041,1.042.273.423.528,1.083a9.662,9.662,0,0,0,.938,2.238c.215.053.846-.818.86-1.3a1.158,1.158,0,0,1,.5-1.148,12.858,12.858,0,0,1,1.533-1.229c.423-.169,1.027.656,1.049,1.089s.555.3.682.746a21.6,21.6,0,0,0,.7,2.38c.228.45,1.049.582.8.212s-.885-1.733-.632-2.023,1.068,1,1.508.808.44-1.373.115-1.848a.957.957,0,0,1,.3-1.364c.418-.126,1.948-.276,2.327-.733s1.145-1.34.928-1.85-1.134-1.607-.687-1.995a1.171,1.171,0,0,1,1.648.336c.172.524.684.9.89.67s-.078-1.442.446-1.839,2.037-1.493,2.226-2.05.169-1.626-.235-1.852-.638-.488-.461-.7,1.025-1.416,2.213-1.29,1.468.331,1.986.172.569-.931,1.277-.906,1.527-.622,1.6-.367-.615.712-1.027,1.107-1.156,1.116-1.128,1.876.265.835.512.767a6.012,6.012,0,0,0,1.167-2.021,1.3,1.3,0,0,1,1.19-.953,6.255,6.255,0,0,0,2.722-.836c.291-.319-.349-.912.051-.952s1.556.582,2.048.38-.443-1.011-.885-1.113a11.776,11.776,0,0,0-2.567-.632,2.631,2.631,0,0,1-1.556-.241,5.056,5.056,0,0,0-2.225-.392c-.734.076-1.037-.455-1.569-.569a7.3,7.3,0,0,0-2.788-.253,5.4,5.4,0,0,1-2,.291,3.371,3.371,0,0,1-1.227-.823,5.448,5.448,0,0,0-2.182-.227,9.327,9.327,0,0,0-2.043-.045c-.569.159-1.745.166-1.34,0s1.9-.7,1.922-1.093-.519-.62-1.164-.608-1.483-.358-1.836-.069-1.793.408-2.477.79-.454.717-1,.833-1.392.394-1.316.9-.756.224-1.188.532-.051,1.023-.494,1.353-1.078.291-.874.113.738-.612.68-1.172.219-1.3-.338-1.388a.87.87,0,0,0-.936.853c.025.366.349,1.063.2,1.177s-.556-.385-1.452-.56-.809.421-1.213.484a5.669,5.669,0,0,0-2.087.366,4.165,4.165,0,0,1-1.327.463c-.419.119-.788.609-1.21.723s-.751.319-.954-.06-.919-.952-.589-.861,1.877.256,1.972-.01-1.5-.978-1.75-1.1a3.271,3.271,0,0,0-1.919-.643,5.2,5.2,0,0,0-2.693,1.28,9.474,9.474,0,0,1-1.668,1.955,1.345,1.345,0,0,0-.765,1.254c.094.474.519.8.746.7s.623-.636.716-.484.246.76.4,1.049.311.306.625.123.456-.971.437-1.364-.023-1.216.493-1.515.793-.98,1.143-.832-.086.6-.285,1.021-.374,1.157-.091,1.166,1.472-.238,1.51,0-1.272.241-1.22.706-.37.605-.637.851a3.785,3.785,0,0,1-2.1.843,2.382,2.382,0,0,0-1.94.385,5.18,5.18,0,0,1-1.208,1.233C1071.261,147.444,1071.524,148.646,1071.45,148.842Z" transform="translate(-1031.232 -132.219)" fill="#8167c6"/>
                <path id="Path_856" data-name="Path 856" d="M1072.644,153.694a1.624,1.624,0,0,0,1.468-.872c.025-.317-.567-.659-.682-.987s-.056-.763-.242-.986-1.053.012-1.039.272a1.774,1.774,0,0,0,.408.835C1072.8,152.3,1072.4,153.619,1072.644,153.694Z" transform="translate(-1033.146 -139.165)" fill="#8167c6"/>
                <path id="Path_857" data-name="Path 857" d="M1070.584,154.2c.421.232.851-.285.856-.68s.029-.8-.313-.788S1070.1,153.93,1070.584,154.2Z" transform="translate(-1032.339 -140.083)" fill="#8167c6"/>
                <path id="Path_858" data-name="Path 858" d="M1119.263,179.96a10.241,10.241,0,0,0,1.793,2.236c.541.254.788-.227.541-.669S1119.275,179.721,1119.263,179.96Z" transform="translate(-1055.141 -152.784)" fill="#8167c6"/>
                <path id="Path_859" data-name="Path 859" d="M1126.295,180.124c-.306.376-.332,1.209.048,1.349s.919.673,1.216-.174.569-2.093.21-2.183S1126.517,179.851,1126.295,180.124Z" transform="translate(-1058.315 -152.399)" fill="#8167c6"/>
                <path id="Path_860" data-name="Path 860" d="M1130.728,173.264c-.469-.059-.549.815-.205,1.394s.228,1.18.509,1.539.829-.11.559-.535S1130.97,173.293,1130.728,173.264Z" transform="translate(-1060.299 -149.669)" fill="#8167c6"/>
                <path id="Path_861" data-name="Path 861" d="M1129.429,189.008c-.249.412-.967.526-1.65.886s-.407.9-.178,2-.094,2.078.361,1.877a8.946,8.946,0,0,1,2.988-1.017c1.057-.018,2.376,1.287,3.3,1.733s1.749.433,2.169-.23,1.278-2.213.9-2.89-1.595-1.494-1.825-2.223-.639-1.823-.855-1.821-.121,1.538-.63,1.445-.828-.676-1.068-.96-1.322.259-1.859.429S1129.964,188.119,1129.429,189.008Z" transform="translate(-1058.916 -156.233)" fill="#8167c6"/>
                <path id="Path_862" data-name="Path 862" d="M1135.068,182.144a1.616,1.616,0,0,0,1.249,1.244,2.578,2.578,0,0,1,1.4.588c.559.344,1.161.191,1.865.5s.237-.658-.635-1.165a9.721,9.721,0,0,0-2.429-.945C1136.057,182.26,1135.068,182.144,1135.068,182.144Z" transform="translate(-1062.52 -153.816)" fill="#8167c6"/>
              </g>
            </g>
          </g>
        </g>
      </g>
    </g>
  </g>
</svg>
