<svg xmlns="http://www.w3.org/2000/svg" width="35.867" height="35.867" viewBox="0 0 35.867 35.867">
  <g id="Group_202" data-name="Group 202" transform="translate(-1197.96 -567.768)">
    <circle id="Ellipse_34" data-name="Ellipse 34" cx="4.203" cy="4.203" r="4.203" transform="translate(1203.284 586.822)" fill="#fff"/>
    <path id="Path_759" data-name="Path 759" d="M1206.068,677.646a1.05,1.05,0,0,0,1.051,1.051h12.61a1.05,1.05,0,0,0,1.051-1.051,7.356,7.356,0,0,0-14.711,0Z" transform="translate(-5.936 -75.062)" fill="#fff"/>
    <circle id="Ellipse_35" data-name="Ellipse 35" cx="4.203" cy="4.203" r="4.203" transform="translate(1220.097 586.822)" fill="#fff"/>
    <path id="Path_760" data-name="Path 760" d="M1268.837,677.646a1.05,1.05,0,0,0,1.051,1.051h12.61a1.05,1.05,0,0,0,1.051-1.051,7.356,7.356,0,0,0-14.711,0Z" transform="translate(-51.893 -75.062)" fill="#fff"/>
    <path id="Path_761" data-name="Path 761" d="M1230.675,567.768h-29.563a3.156,3.156,0,0,0-3.152,3.152v8.406a3.156,3.156,0,0,0,3.152,3.153h3.768l1.794,1.794a1.05,1.05,0,0,0,1.486,0l1.794-1.794h11.879l1.794,1.794a1.05,1.05,0,0,0,1.486,0l1.794-1.794h3.768a3.156,3.156,0,0,0,3.152-3.153V570.92A3.156,3.156,0,0,0,1230.675,567.768Zm-19.054,10.508h-8.406a1.051,1.051,0,0,1,0-2.1h8.406a1.051,1.051,0,0,1,0,2.1Zm0-4.2h-8.406a1.051,1.051,0,0,1,0-2.1h8.406a1.051,1.051,0,0,1,0,2.1Zm16.953,4.2h-8.407a1.051,1.051,0,0,1,0-2.1h8.407a1.051,1.051,0,0,1,0,2.1Zm0-4.2h-8.407a1.051,1.051,0,0,1,0-2.1h8.407a1.051,1.051,0,0,1,0,2.1Z" fill="#fff"/>
  </g>
</svg>
