<svg id="Group_182" data-name="Group 182" xmlns="http://www.w3.org/2000/svg" width="34.736" height="34.735" viewBox="0 0 34.736 34.735">
  <g id="Group_181" data-name="Group 181" transform="translate(0 0)">
    <path id="Path_706" data-name="Path 706" d="M396.054,113.541A17.368,17.368,0,1,0,375.972,130.7V118.561h-4.41v-5.02h4.41v-3.827c0-4.353,2.593-6.757,6.56-6.757a26.662,26.662,0,0,1,3.888.34v4.273h-2.19a2.511,2.511,0,0,0-2.83,2.713v3.258h4.817l-.771,5.02H381.4V130.7A17.371,17.371,0,0,0,396.054,113.541Z" transform="translate(-361.318 -96.173)" fill="#337fff"/>
    <path id="Path_707" data-name="Path 707" d="M385.637,118.687l.771-5.02H381.59v-3.258a2.511,2.511,0,0,1,2.83-2.713h2.19v-4.273a26.663,26.663,0,0,0-3.888-.34c-3.967,0-6.56,2.4-6.56,6.757v3.827h-4.41v5.02h4.41v12.136a17.548,17.548,0,0,0,5.427,0V118.687Z" transform="translate(-361.509 -96.299)" fill="#fff"/>
  </g>
</svg>
