<svg id="Group_184" data-name="Group 184" xmlns="http://www.w3.org/2000/svg" width="34.385" height="35.185" viewBox="0 0 34.385 35.185">
  <path id="Path_708" data-name="Path 708" d="M352.1,687.7a16.871,16.871,0,0,1,4.565-5.78,17.563,17.563,0,0,1,20.163-1.531,19.662,19.662,0,0,1,2.423,1.728c.19.154.169.246.007.4q-2.349,2.339-4.684,4.691c-.183.183-.281.169-.477.021a10.335,10.335,0,0,0-14.579,2.079,10.231,10.231,0,0,0-1.419,2.647,2.064,2.064,0,0,1-.126.246c-.906-.688-1.819-1.376-2.718-2.071Q353.673,688.921,352.1,687.7Z" transform="translate(-350.279 -677.911)" fill="#c94539"/>
  <path id="Path_709" data-name="Path 709" d="M357.957,738.493a18.292,18.292,0,0,0,.934,1.987,10.1,10.1,0,0,0,6.868,4.888,10.981,10.981,0,0,0,7.725-1.18c.084-.042.169-.084.246-.126.042.042.077.091.119.126q2.718,2.107,5.443,4.213a13.883,13.883,0,0,1-2.914,2.163,16.888,16.888,0,0,1-9.846,2.177,17.243,17.243,0,0,1-11.173-5.141,16.061,16.061,0,0,1-3.28-4.635c.752-.576,1.5-1.145,2.254-1.721C355.542,740.326,356.749,739.413,357.957,738.493Z" transform="translate(-350.266 -717.612)" fill="#67a559"/>
  <path id="Path_710" data-name="Path 710" d="M409.29,736.01q-2.718-2.107-5.443-4.214a1,1,0,0,1-.12-.127A10.782,10.782,0,0,0,405.5,730.1a8.162,8.162,0,0,0,1.721-3.484c.035-.161.007-.218-.154-.211-.084.007-.162,0-.246,0-2.865,0-5.738-.007-8.6.007-.316,0-.386-.084-.379-.386q.021-3.055,0-6.11c0-.26.07-.33.33-.33q7.88.011,15.766,0c.225,0,.316.056.372.3a16.555,16.555,0,0,1,.14,5.822,19.026,19.026,0,0,1-1.173,4.53,16.111,16.111,0,0,1-3.806,5.653C409.409,735.933,409.346,735.968,409.29,736.01Z" transform="translate(-380.255 -705.221)" fill="#5c83ee"/>
  <path id="Path_711" data-name="Path 711" d="M354.509,717.422c-1.208.92-2.416,1.833-3.624,2.753q-1.127.854-2.254,1.721a15.206,15.206,0,0,1-1.271-3.406,17.71,17.71,0,0,1-.358-6.924,16.121,16.121,0,0,1,1.629-5.225c1.054.808,2.1,1.622,3.153,2.43q1.359,1.043,2.718,2.072a20.373,20.373,0,0,0-.443,2.261,10.893,10.893,0,0,0,.407,4.122A.577.577,0,0,1,354.509,717.422Z" transform="translate(-346.818 -696.541)" fill="#e9b92d"/>
</svg>
