<svg xmlns="http://www.w3.org/2000/svg" width="16" height="16.616" viewBox="0 0 16 16.616">
  <g id="Layer_2" data-name="Layer 2" transform="translate(-106.357 -63.513)">
    <path id="Path_726" data-name="Path 726" d="M119.28,127.351h-9.846a3.077,3.077,0,0,1-3.077-3.077.614.614,0,0,1,.037-.215,8.246,8.246,0,0,1,7.68-5.323h.566a8.246,8.246,0,0,1,7.68,5.323.613.613,0,0,1,.037.215A3.077,3.077,0,0,1,119.28,127.351Zm-11.693-2.972a1.846,1.846,0,0,0,1.846,1.742h9.846a1.846,1.846,0,0,0,1.846-1.742,7.01,7.01,0,0,0-6.486-4.412h-.566A7.01,7.01,0,0,0,107.588,124.378Z" transform="translate(0 -47.222)" fill="#1a3a4f"/>
    <path id="Path_727" data-name="Path 727" d="M139.783,70.9a3.692,3.692,0,1,1,3.692-3.692A3.692,3.692,0,0,1,139.783,70.9Zm0-6.154a2.462,2.462,0,1,0,2.462,2.462A2.462,2.462,0,0,0,139.783,64.744Z" transform="translate(-25.426)" fill="#1a3a4f"/>
    <path id="Path_728" data-name="Path 728" d="M119.28,127.351h-9.846a3.077,3.077,0,0,1-3.077-3.077.614.614,0,0,1,.037-.215,8.246,8.246,0,0,1,7.68-5.323h.566a8.246,8.246,0,0,1,7.68,5.323.613.613,0,0,1,.037.215A3.077,3.077,0,0,1,119.28,127.351Zm-11.693-2.972a1.846,1.846,0,0,0,1.846,1.742h9.846a1.846,1.846,0,0,0,1.846-1.742,7.01,7.01,0,0,0-6.486-4.412h-.566A7.01,7.01,0,0,0,107.588,124.378Z" transform="translate(0 -47.222)" fill="#1a3a4f"/>
  </g>
</svg>
