<svg xmlns="http://www.w3.org/2000/svg" width="21.72" height="15.037" viewBox="0 0 21.72 15.037">
  <g id="mail_email_e-mail_letter" data-name="mail email e-mail letter" transform="translate(-69.211 -799.965)">
    <path id="Path_695" data-name="Path 695" d="M90.1,862.4a.835.835,0,0,0-.835.835v6.683a.835.835,0,0,1-.835.835H71.717a.835.835,0,0,1-.835-.835v-6.683a.835.835,0,0,0-1.671,0v6.683a2.51,2.51,0,0,0,2.506,2.506H88.425a2.51,2.51,0,0,0,2.506-2.506v-6.683A.835.835,0,0,0,90.1,862.4Z" transform="translate(0 -57.426)" fill="#1a3a4f"/>
    <path id="Path_696" data-name="Path 696" d="M81.408,809.823a.835.835,0,0,0,1,0l9.866-7.4a.836.836,0,0,0,.251-1.028,2.556,2.556,0,0,0-.493-.693,2.506,2.506,0,0,0-1.771-.735H73.555a2.506,2.506,0,0,0-1.771.735,2.555,2.555,0,0,0-.493.693.835.835,0,0,0,.251,1.028Zm-7.853-8.187H90.263a.752.752,0,0,1,.234,0l-8.588,6.474-8.588-6.474A.752.752,0,0,1,73.555,801.636Z" transform="translate(-1.838 0)" fill="#1a3a4f"/>
  </g>
</svg>
