<svg xmlns="http://www.w3.org/2000/svg" width="14.175" height="19.207" viewBox="0 0 14.175 19.207">
  <g id="unlock" transform="translate(-126.642 -1028.889)">
    <g id="Group_136" data-name="Group 136" transform="translate(126.642 1028.889)">
      <path id="Path_697" data-name="Path 697" d="M140.081,1036.9h-1.2v-2.849a5.154,5.154,0,1,0-10.309,0,.743.743,0,0,0,1.486,0,3.67,3.67,0,1,1,7.34,0v2.849H127.391a.742.742,0,0,0-.749.735v8.608a1.863,1.863,0,0,0,1.862,1.854h10.464a1.851,1.851,0,0,0,1.849-1.854v-8.608A.731.731,0,0,0,140.081,1036.9Zm-.747,9.344a.368.368,0,0,1-.366.372H128.5a.379.379,0,0,1-.38-.372v-7.861h11.209Z" transform="translate(-126.642 -1028.889)" fill="#1a3a4f"/>
      <path id="Path_698" data-name="Path 698" d="M213.28,1191.077a.741.741,0,0,0,.741-.742v-2.672a.741.741,0,1,0-1.483,0v2.672A.741.741,0,0,0,213.28,1191.077Z" transform="translate(-206.193 -1175.246)" fill="#1a3a4f"/>
    </g>
  </g>
</svg>
