<svg xmlns="http://www.w3.org/2000/svg" width="31.408" height="31.593" viewBox="0 0 31.408 31.593">
  <g id="Group_401" data-name="Group 401" transform="translate(-480.673 -320.37)">
    <path id="Path_740" data-name="Path 740" d="M480.673,350.232c.03-.318.057-.636.091-.953a15.329,15.329,0,0,1,2.1-6.325,15.583,15.583,0,0,1,6.633-6.1c.086-.042.173-.083.28-.134-.05-.054-.09-.1-.132-.143a9.365,9.365,0,0,1-2.623-5.623,9.624,9.624,0,0,1,5.026-9.5,9.132,9.132,0,0,1,5.036-1.063,9.478,9.478,0,0,1,8.305,6.264,9.671,9.671,0,0,1-.152,6.977,8.455,8.455,0,0,1-1.881,2.871c-.03.03-.058.062-.086.095-.006.007-.007.02,0,0,.592.34,1.2.642,1.756,1.023a1.023,1.023,0,0,1,.424,1.314,1.094,1.094,0,0,1-1.206.658.958.958,0,0,1-.3-.136,12.332,12.332,0,0,0-2.568-1.251.28.28,0,0,0-.2.029,9.7,9.7,0,0,1-9.431.024.352.352,0,0,0-.341-.028,13.517,13.517,0,0,0-7.311,6.763,13.269,13.269,0,0,0-1.323,4.8c-.027.313-.038.629-.043.944-.01.732-.161.958-.832,1.225h-.385a3.71,3.71,0,0,1-.453-.214,1.037,1.037,0,0,1-.38-.62ZM496.418,337.4a7.405,7.405,0,1,0-7.4-7.384A7.422,7.422,0,0,0,496.418,337.4Z" transform="translate(0)" fill="#f05a28"/>
    <path id="Path_741" data-name="Path 741" d="M535.826,378.242h-.233q-3.371,0-6.743,0a1.133,1.133,0,0,1-.921-.4,1.024,1.024,0,0,1-.174-1.136,1.09,1.09,0,0,1,.956-.676c.063-.006.128,0,.192,0h6.909a.943.943,0,0,0-.071-.094q-1.023-1.016-2.047-2.03a.842.842,0,0,1-.234-.736,1.08,1.08,0,0,1,.721-.956,1.115,1.115,0,0,1,1.208.227c.377.354.737.728,1.1,1.094q1.377,1.375,2.753,2.751a1.166,1.166,0,0,1,.253,1.233,1.262,1.262,0,0,1-.346.471c-1.246,1.253-2.5,2.5-3.746,3.751a1.185,1.185,0,0,1-.541.379,1.144,1.144,0,0,1-1.295-.533,1.114,1.114,0,0,1,.223-1.3c.307-.319.625-.628.938-.942l.963-.963C535.732,378.346,535.766,378.307,535.826,378.242Z" transform="translate(-27.488 -30.283)" fill="#f05a28"/>
  </g>
</svg>
