<svg xmlns="http://www.w3.org/2000/svg" width="40.565" height="40.565" viewBox="0 0 40.565 40.565">
  <g id="Group_301" data-name="Group 301" transform="translate(-1528.02 -494.105)">
    <path id="Path_864" data-name="Path 864" d="M1544.447,498.962a15.964,15.964,0,0,1,16.817,0,4.793,4.793,0,1,0,.6-2.392,18.425,18.425,0,0,0-18.024,0,4.731,4.731,0,1,0,.6,2.392Z" transform="translate(-4.553 0)" fill="#fff"/>
    <path id="Path_865" data-name="Path 865" d="M1582.8,554.523a4.754,4.754,0,1,0-4.754,4.754A4.759,4.759,0,0,0,1582.8,554.523Z" transform="translate(-29.741 -36.57)" fill="#fff"/>
    <path id="Path_866" data-name="Path 866" d="M1561.454,521.822a7.138,7.138,0,0,0-7.13,7.13V532.6a1.188,1.188,0,0,0,1.188,1.189h7.872a15.441,15.441,0,0,1-9,10.6,7.073,7.073,0,0,0-12.174,0,15.441,15.441,0,0,1-9-10.6h7.872a1.188,1.188,0,0,0,1.189-1.189v-3.644a7.131,7.131,0,0,0-14.261,0V532.6a1.188,1.188,0,0,0,1.188,1.189h1.587a17.791,17.791,0,0,0,10.531,12.8,7.135,7.135,0,0,0-.154,1.463v3.645a1.188,1.188,0,0,0,1.189,1.188h11.884a1.188,1.188,0,0,0,1.188-1.188v-3.645a7.135,7.135,0,0,0-.154-1.463,17.791,17.791,0,0,0,10.531-12.8h1.587a1.188,1.188,0,0,0,1.188-1.189v-3.644A7.138,7.138,0,0,0,1561.454,521.822Z" transform="translate(0 -18.209)" fill="#fff"/>
  </g>
</svg>
