<svg xmlns="http://www.w3.org/2000/svg" width="140.763" height="98.801" viewBox="0 0 140.763 98.801">
  <g id="Group_538" data-name="Group 538" transform="translate(-356.071 -246.216)">
    <g id="Group_531" data-name="Group 531" transform="translate(356.071 318.286)">
      <path id="Path_934" data-name="Path 934" d="M364.231,488.883c-2.694,0-5.466.024-8.16.024v17.314h3.265v-5.1h4.9C372.766,501.051,372.742,488.883,364.231,488.883Zm0,9.25h-4.9V492h4.9A3.067,3.067,0,1,1,364.231,498.133Z" transform="translate(-356.071 -488.312)" fill="#f05a28"/>
      <path id="Path_935" data-name="Path 935" d="M413.928,488.964h-3.561L402.6,506.278h3.536l1.483-3.265h9.054l1.459,3.265H421.7Zm-5,11.008,3.214-7.372,3.216,7.372Z" transform="translate(-388.672 -488.369)" fill="#f05a28"/>
      <path id="Path_936" data-name="Path 936" d="M462.93,488.964v2.969h5.491v14.345h3.265V491.933h5.493v-2.969Z" transform="translate(-430.942 -488.369)" fill="#f05a28"/>
      <path id="Path_937" data-name="Path 937" d="M530.567,489.045v7.3h-8.51v-7.3h-3.265v17.314h3.265v-7h8.51v7h3.241V489.045Z" transform="translate(-470.083 -488.426)" fill="#f05a28"/>
      <path id="Path_938" data-name="Path 938" d="M598.93,488.964l-3.959,12.491-4.328-12.491h-2.126l-4.207,12.491-4.08-12.491h-3.66l6.357,17.314H585.7l2.1-5.391,1.806-5.517,1.83,5.466,2.153,5.442h2.77l6.233-17.314Z" transform="translate(-510.564 -488.369)" fill="#f05a28"/>
      <path id="Path_939" data-name="Path 939" d="M672.522,488.964h-3.561l-7.767,17.314h3.536l1.486-3.265h9.051l1.459,3.265h3.564Zm-5,11.008,3.213-7.372,3.216,7.372Z" transform="translate(-569.857 -488.369)" fill="#f05a28"/>
      <path id="Path_940" data-name="Path 940" d="M732.759,488.964l-4.6,7.148-4.4-7.148H719.87v.148l6.656,10.018v7.149h3.265v-7.149l6.9-10.018v-.148Z" transform="translate(-610.969 -488.369)" fill="#f05a28"/>
      <path id="Path_941" data-name="Path 941" d="M784.654,494.3c-2.078-.248-3.86-.667-3.86-2.177,0-1.286,1.163-2.3,3.588-2.3a4.956,4.956,0,0,1,4.1,1.93l2.6-1.335c-1.31-2.673-4.1-3.439-6.8-3.439-3.192.024-6.7,1.486-6.7,5.046,0,3.884,3.267,4.823,6.8,5.246,2.3.245,4,.915,4,2.546,0,1.881-1.927,2.6-3.981,2.6-2.1,0-4.107-.84-4.874-2.745l-2.721,1.41c1.286,3.165,4.007,4.255,7.547,4.255,3.857,0,7.269-1.658,7.269-5.518C791.627,495.684,788.266,494.744,784.654,494.3Z" transform="translate(-650.865 -486.977)" fill="#f05a28"/>
    </g>
    <g id="Group_532" data-name="Group 532" transform="translate(356.071 340.033)">
      <path id="Path_942" data-name="Path 942" d="M356.071,560.011v.732h1.44v4.016h.8v-4.016h1.44v-.732Z" transform="translate(-356.071 -559.895)" fill="#2b388f"/>
      <path id="Path_943" data-name="Path 943" d="M378.629,560.327a2.6,2.6,0,0,0-3.558,0,2.489,2.489,0,0,0,0,3.5,2.6,2.6,0,0,0,3.558,0,2.489,2.489,0,0,0,0-3.5Zm-.587,2.972a1.664,1.664,0,0,1-2.385,0,1.776,1.776,0,0,1,0-2.438,1.663,1.663,0,0,1,2.385,0,1.777,1.777,0,0,1,0,2.438Z" transform="translate(-368.878 -559.625)" fill="#2b388f"/>
      <path id="Path_944" data-name="Path 944" d="M411.892,563.622a1.721,1.721,0,0,1-.716.137,1.573,1.573,0,0,1-1.149-.484,1.634,1.634,0,0,1-.487-1.208,1.577,1.577,0,0,1,.49-1.19,1.689,1.689,0,0,1,1.208-.466,1.8,1.8,0,0,1,.71.129,2.252,2.252,0,0,1,.641.455l.512-.554a2.392,2.392,0,0,0-1.844-.815,2.5,2.5,0,0,0-1.828.7,2.37,2.37,0,0,0-.724,1.766,2.339,2.339,0,0,0,.711,1.752,2.446,2.446,0,0,0,1.784.694,2.372,2.372,0,0,0,1.83-.837l-.514-.527A2.6,2.6,0,0,1,411.892,563.622Z" transform="translate(-392.949 -559.625)" fill="#2b388f"/>
      <path id="Path_945" data-name="Path 945" d="M433.879,560.327a2.6,2.6,0,0,0-3.558,0,2.489,2.489,0,0,0,0,3.5,2.6,2.6,0,0,0,3.558,0,2.5,2.5,0,0,0,0-3.5Zm-.589,2.972a1.661,1.661,0,0,1-2.382,0,1.77,1.77,0,0,1,0-2.438,1.66,1.66,0,0,1,2.382,0,1.769,1.769,0,0,1,0,2.438Z" transform="translate(-407.59 -559.625)" fill="#2b388f"/>
      <path id="Path_946" data-name="Path 946" d="M455.02,564v-3.986h-.8v4.748h2.969V564Z" transform="translate(-424.838 -559.895)" fill="#2b388f"/>
      <path id="Path_947" data-name="Path 947" d="M472.4,564v-3.986h-.8v4.748h2.969V564Z" transform="translate(-437.016 -559.895)" fill="#2b388f"/>
      <path id="Path_948" data-name="Path 948" d="M489.78,564v-1.268h2.274v-.713H489.78v-1.257h2.533v-.754h-3.335v4.748h3.416V564Z" transform="translate(-449.193 -559.895)" fill="#2b388f"/>
      <path id="Path_949" data-name="Path 949" d="M510.922,562.179v1.3a2.065,2.065,0,0,1-1.13.293,1.706,1.706,0,0,1-1.139-2.9,1.69,1.69,0,0,1,1.208-.466,2.1,2.1,0,0,1,.657.094,1.616,1.616,0,0,1,.56.328l.428-.611a2.483,2.483,0,0,0-1.7-.6,2.412,2.412,0,0,0-1.749.7,2.371,2.371,0,0,0-.724,1.766,2.34,2.34,0,0,0,.71,1.752,2.423,2.423,0,0,0,1.763.694,2.471,2.471,0,0,0,1.922-.74v-1.623Z" transform="translate(-462.051 -559.625)" fill="#2b388f"/>
      <path id="Path_950" data-name="Path 950" d="M530.867,564v-1.268h2.277v-.713h-2.277v-1.257H533.4v-.754h-3.335v4.748h3.416V564Z" transform="translate(-477.982 -559.895)" fill="#2b388f"/>
      <path id="Path_951" data-name="Path 951" d="M562.645,563.46a4.414,4.414,0,0,0,.4-.821l-.557-.393a2.555,2.555,0,0,1-.326.727q-.339-.355-.883-1.02,1.086-.6,1.087-1.27a.909.909,0,0,0-.382-.78,1.513,1.513,0,0,0-.923-.277,1.559,1.559,0,0,0-.942.291.97.97,0,0,0-.4.837,1.045,1.045,0,0,0,.11.514,3.2,3.2,0,0,0,.39.525c-.743.4-1.111.853-1.111,1.364a1.219,1.219,0,0,0,.468,1.015,1.766,1.766,0,0,0,1.133.372,2.113,2.113,0,0,0,1.494-.552l.624.619.512-.476C563.057,563.872,562.826,563.646,562.645,563.46Zm-1.992-3.09a.642.642,0,0,1,.407-.143.666.666,0,0,1,.406.134.461.461,0,0,1,.18.4c0,.215-.256.452-.767.705a3.647,3.647,0,0,1-.315-.425.637.637,0,0,1-.092-.342A.42.42,0,0,1,560.654,560.37Zm.151,3.513a1.1,1.1,0,0,1-.684-.194.6.6,0,0,1-.258-.5q0-.5.767-.912c.267.328.63.729,1.087,1.211A1.491,1.491,0,0,1,560.8,563.883Z" transform="translate(-498.331 -559.625)" fill="#2b388f"/>
      <path id="Path_952" data-name="Path 952" d="M593.241,562.206a2.63,2.63,0,0,0-1.1-.5,3.335,3.335,0,0,1-.956-.328.5.5,0,0,1-.223-.441.478.478,0,0,1,.223-.43,1.04,1.04,0,0,1,.573-.143,2.214,2.214,0,0,1,.711.121,1.654,1.654,0,0,1,.57.312l.428-.6a2.344,2.344,0,0,0-.775-.423,2.842,2.842,0,0,0-.9-.148,1.94,1.94,0,0,0-1.187.355,1.2,1.2,0,0,0-.479,1.014,1.152,1.152,0,0,0,.423.98,1.8,1.8,0,0,0,.482.274,6.57,6.57,0,0,0,.794.231,2.234,2.234,0,0,1,.737.277.5.5,0,0,1,.216.428.524.524,0,0,1-.229.442,1,1,0,0,1-.613.167,2.255,2.255,0,0,1-1.494-.624l-.5.606a2.883,2.883,0,0,0,1.976.767,1.871,1.871,0,0,0,1.23-.388,1.249,1.249,0,0,0,.468-1.009A1.17,1.17,0,0,0,593.241,562.206Z" transform="translate(-519.932 -559.625)" fill="#2b388f"/>
      <path id="Path_953" data-name="Path 953" d="M612.223,563.622a1.7,1.7,0,0,1-.713.137,1.579,1.579,0,0,1-1.152-.484,1.642,1.642,0,0,1-.485-1.208,1.567,1.567,0,0,1,.49-1.19,1.685,1.685,0,0,1,1.208-.466,1.777,1.777,0,0,1,.708.129,2.263,2.263,0,0,1,.643.455l.509-.554a2.388,2.388,0,0,0-1.844-.815,2.509,2.509,0,0,0-1.827.7,2.37,2.37,0,0,0-.724,1.766,2.339,2.339,0,0,0,.711,1.752,2.452,2.452,0,0,0,1.787.694,2.379,2.379,0,0,0,1.83-.837l-.517-.527A2.559,2.559,0,0,1,612.223,563.622Z" transform="translate(-533.313 -559.625)" fill="#2b388f"/>
      <path id="Path_954" data-name="Path 954" d="M634.455,560.011v2.057H632.1v-2.057h-.8v4.748h.8v-1.943h2.355v1.943h.8v-4.748Z" transform="translate(-548.911 -559.895)" fill="#2b388f"/>
      <path id="Path_955" data-name="Path 955" d="M656.724,560.327a2.608,2.608,0,0,0-3.561,0,2.5,2.5,0,0,0,0,3.5,2.607,2.607,0,0,0,3.561,0,2.5,2.5,0,0,0,0-3.5Zm-.589,2.972a1.661,1.661,0,0,1-2.382,0,1.769,1.769,0,0,1,0-2.438,1.66,1.66,0,0,1,2.382,0,1.769,1.769,0,0,1,0,2.438Z" transform="translate(-563.727 -559.625)" fill="#2b388f"/>
      <path id="Path_956" data-name="Path 956" d="M677.862,564v-3.986h-.8v4.748h2.966V564Z" transform="translate(-580.976 -559.895)" fill="#2b388f"/>
      <path id="Path_957" data-name="Path 957" d="M695.187,560.011h-.856l-2.091,4.748h.856l.474-1.082h2.379l.474,1.082h.856Zm-1.292,2.926.864-1.954.861,1.954Z" transform="translate(-591.61 -559.895)" fill="#2b388f"/>
      <path id="Path_958" data-name="Path 958" d="M718.579,563.033a1.627,1.627,0,0,0,.554-2.656,2.543,2.543,0,0,0-1.553-.366h-1.766v4.748h.8v-1.6h1.055l1.133,1.6h1.017Zm-.966-.6h-1v-1.7h1.02a1.667,1.667,0,0,1,.9.172.724.724,0,0,1,.25.638.848.848,0,0,1-.242.676A1.475,1.475,0,0,1,717.613,562.436Z" transform="translate(-608.128 -559.895)" fill="#2b388f"/>
      <path id="Path_959" data-name="Path 959" d="M738.879,562.206a2.642,2.642,0,0,0-1.1-.5,3.282,3.282,0,0,1-.953-.328.5.5,0,0,1-.223-.441.473.473,0,0,1,.223-.43,1.028,1.028,0,0,1,.573-.143,2.227,2.227,0,0,1,.711.121,1.68,1.68,0,0,1,.57.312l.428-.6a2.348,2.348,0,0,0-.775-.423,2.846,2.846,0,0,0-.9-.148,1.932,1.932,0,0,0-1.184.355,1.189,1.189,0,0,0-.479,1.014,1.145,1.145,0,0,0,.422.98,1.753,1.753,0,0,0,.482.274,6.542,6.542,0,0,0,.794.231,2.24,2.24,0,0,1,.738.277.5.5,0,0,1,.213.428.522.522,0,0,1-.226.442,1.016,1.016,0,0,1-.616.167,2.259,2.259,0,0,1-1.494-.624l-.5.606a2.883,2.883,0,0,0,1.976.767,1.858,1.858,0,0,0,1.227-.388,1.243,1.243,0,0,0,.471-1.009A1.169,1.169,0,0,0,738.879,562.206Z" transform="translate(-621.974 -559.625)" fill="#2b388f"/>
      <path id="Path_960" data-name="Path 960" d="M758.856,560.011v2.057H756.5v-2.057h-.8v4.748h.8v-1.943h2.355v1.943h.8v-4.748Z" transform="translate(-636.073 -559.895)" fill="#2b388f"/>
      <path id="Path_961" data-name="Path 961" d="M777.862,560.011v4.748h.8v-4.748Z" transform="translate(-651.602 -559.895)" fill="#2b388f"/>
      <path id="Path_962" data-name="Path 962" d="M792.684,560.426a2.434,2.434,0,0,0-1.574-.415h-1.631v4.748h.8v-1.394h.843a2.461,2.461,0,0,0,1.55-.4,1.506,1.506,0,0,0,.509-1.262A1.564,1.564,0,0,0,792.684,560.426Zm-.568,1.96a1.231,1.231,0,0,1-.9.253h-.931v-1.9h.816a1.782,1.782,0,0,1,.958.2.781.781,0,0,1,.3.7A1.047,1.047,0,0,1,792.116,562.385Z" transform="translate(-659.741 -559.895)" fill="#2b388f"/>
      <path id="Path_963" data-name="Path 963" d="M811.548,562.206a2.644,2.644,0,0,0-1.1-.5,3.342,3.342,0,0,1-.956-.328.5.5,0,0,1-.223-.441.479.479,0,0,1,.223-.43,1.044,1.044,0,0,1,.576-.143,2.209,2.209,0,0,1,.708.121,1.651,1.651,0,0,1,.57.312l.428-.6a2.332,2.332,0,0,0-.773-.423,2.858,2.858,0,0,0-.9-.148,1.926,1.926,0,0,0-1.184.355,1.189,1.189,0,0,0-.479,1.014,1.15,1.15,0,0,0,.42.98,1.794,1.794,0,0,0,.482.274,6.47,6.47,0,0,0,.8.231,2.244,2.244,0,0,1,.735.277.5.5,0,0,1,.215.428.518.518,0,0,1-.229.442,1,1,0,0,1-.614.167,2.255,2.255,0,0,1-1.494-.624l-.5.606a2.889,2.889,0,0,0,1.976.767,1.866,1.866,0,0,0,1.23-.388,1.248,1.248,0,0,0,.468-1.009A1.176,1.176,0,0,0,811.548,562.206Z" transform="translate(-672.888 -559.625)" fill="#2b388f"/>
    </g>
    <g id="Group_537" data-name="Group 537" transform="translate(356.071 246.216)">
      <path id="Path_964" data-name="Path 964" d="M374.537,313.933c-6.1,0-12.367.057-18.466.057v39.9h6.381V341.636h12.084C393.633,341.52,393.576,313.933,374.537,313.933Zm0,21.83H362.452V319.806h12.084C385.026,319.806,385.082,335.763,374.537,335.763Z" transform="translate(-356.071 -293.662)" fill="#2b388f"/>
      <path id="Path_965" data-name="Path 965" d="M731.445,327.589c-5.244-.741-9.69-1.824-9.69-5.7,0-3.819,3.876-6.042,9.234-6.042,4.161.057,7.98,1.71,9.861,4.446l4.845-3.249c-3.363-5.358-9.12-6.725-14.877-6.725-7.182,0-15.447,3.191-15.39,11.457,0,8.55,7.524,10.545,15.447,11.628,5.586.741,10.2,2.223,10.2,6.555,0,5.016-5.3,6.612-10.089,6.612-4.617,0-9.576-1.71-12.426-6.555l-4.788,3.191c3.648,6.726,9.519,9.063,17.157,9.063,8.322,0,16.473-3.363,16.53-12.312C747.462,331.009,739.653,328.728,731.445,327.589Z" transform="translate(-606.699 -291.129)" fill="#2b388f"/>
      <path id="Path_966" data-name="Path 966" d="M467.83,346.512c.293-.446.434-.691.6-.91q.788-1.036,1.589-2.071c2.224-2.9,4.46-5.78,6.641-8.7.177-.238.354-.471.526-.7.257-.348.507-.691.764-1.033a76.769,76.769,0,0,0,6.58-9.623,17.17,17.17,0,0,0-4.246-20.914c-3.244-2.633-7.051-3.483-11.163-3.4-5.45.1-9.91,2.267-12.714,6.146q.485.431.935.917a15.318,15.318,0,0,1,2.359,3.366,9.034,9.034,0,0,1,5.841-4.784,16.548,16.548,0,0,1,5.169-.562,10.068,10.068,0,0,1,9.378,6.256c2.3,5.2,1.136,9.928-2.163,14.266q-7.148,9.4-14.346,18.769-1.53,2-3.061,4c-.635.831-1.277,1.662-1.913,2.493-.293.385-.574.782-.971,1.326h24.7v3.422q4.325-3.914,8.645-7.833c-.061-.147-.116-.287-.177-.428Z" transform="translate(-426.371 -283.305)" fill="#f05a28"/>
      <path id="Path_967" data-name="Path 967" d="M523.363,424h-4.926c-1.165,1.333-2.2,2.8-3.478,4.458h17.335c-3.108-2.818-5.94-5.387-8.931-8.1Z" transform="translate(-467.397 -368.234)" fill="#2b388f"/>
      <path id="Path_968" data-name="Path 968" d="M450.3,363.191,457.356,354q3.48-4.5,6.986-8.984c1.942-2.482,3.809-4.992,4.278-8.209.473-3.244-.312-6.123-3.086-8.08a7.882,7.882,0,0,0-12.28,4.351H459.1a2.562,2.562,0,0,1,2.574-.665,2.794,2.794,0,0,1,1.83,3.8,16.761,16.761,0,0,1-2.3,4.5c-2.981,3.956-6.021,7.871-9.06,11.78q-2.208,2.841-4.409,5.679c-.843,1.092-1.677,2.191-2.513,3.291l-1.336,1.733H450.3Z" transform="translate(-417.596 -302.964)" fill="#2b388f"/>
      <g id="Group_535" data-name="Group 535" transform="translate(71.114 23.245)">
        <g id="Group_534" data-name="Group 534">
          <path id="Path_969" data-name="Path 969" d="M638.271,376.3l-2.144,1.63-.909-.765.877-.656s-1.131-.121-2.808-.157c-.611-.015-1.293-.015-2.02,0-3.446.089-7.878.647-10.3,2.72-1.586,1.355-5.643,4.9-10.154,8.858-1.589,1.388-3.231,2.829-4.843,4.243-.18.159-.747.67-1.465,1.314a24.114,24.114,0,0,1-10.869-5.114c1.24-.874,2.622-1.845,2.971-2.094.632-.446,1.338-.951,2.093-1.491.508-.36,1.037-.738,1.577-1.128,1.281-.921,2.634-1.9,3.939-2.858l.676-.5c1.462-1.081,2.838-2.117,3.948-2.988a21.7,21.7,0,0,0,2.528-2.185c1.53-1.854.83-4-2.528-5.7-.221-.112-.455-.224-.7-.334l.015.653h-2.176l.339-2.466h5.114l.2.933L610.1,368.2s6.357,2.569,4.559,6.422a5.659,5.659,0,0,0,1.583-7.547l-.806.576-1.429-.576,2.468-1.792,4.453,1.019-.966.788-1.326-.408a5.721,5.721,0,0,1-.3,7.178l8.253-6.508-1.45.148-.52-.892,4.869-.52,1.447,1.866.336.437-.224.021-1.524.13-.632-.671-8.064,6.54a38.348,38.348,0,0,1,10.645-3.327c.647-.1,1.308-.18,1.978-.239.375-.033.75-.056,1.131-.074l-1.178-.4-.189-.065.165-.118.747-.532,3.071.8-1,2.566-1.131-.434.174-.782s-.656.059-1.7.21c-.564.083-1.237.192-1.984.333-3.171.611-7.636,1.828-10.214,4.119a32.925,32.925,0,0,1,10.128-1.606c.65,0,1.317.023,2,.071a26.327,26.327,0,0,1,2.734.34l-.644-.768,1.293-.015Z" transform="translate(-593.637 -352.888)" fill="#f05a28"/>
          <g id="Group_533" data-name="Group 533" transform="translate(2.807)">
            <path id="Path_970" data-name="Path 970" d="M621.627,330.988a3.557,3.557,0,0,0,3.3-2.224c-.057-.023-.114-.043-.173-.062a1.794,1.794,0,0,1-.211-3.311,3.558,3.558,0,1,0-2.916,5.6Z" transform="translate(-613.561 -323.87)" fill="#2b388f"/>
            <path id="Path_971" data-name="Path 971" d="M618.893,332.608a10.837,10.837,0,0,0-3.573-2.32,1.293,1.293,0,0,0-1.712.68,1.255,1.255,0,0,0,.764,1.65c1.456.483,3,1.651,3,2.179,0,.731-3.12,1.561-3.12,1.561s-3.7.119-5.432.061-4.714-.18-5.549,4.714a26.571,26.571,0,0,0,.376,9.164,1.272,1.272,0,0,0,1.246,1.016,1.229,1.229,0,0,0,.239-.023,1.275,1.275,0,0,0,1-1.527c-1.836-8.471.717-10.479.717-10.479v22.685a1.969,1.969,0,0,0,1.969,1.969h0a1.969,1.969,0,0,0,1.969-1.969v-12.3h.675v12.3a1.97,1.97,0,0,0,1.969,1.969h.011a1.969,1.969,0,0,0,1.969-1.969V338.721C619.783,337.793,621.021,334.815,618.893,332.608Z" transform="translate(-603.013 -328.294)" fill="#2b388f"/>
          </g>
        </g>
      </g>
      <g id="Group_536" data-name="Group 536" transform="translate(62.32 0)">
        <path id="Path_972" data-name="Path 972" d="M648.456,427.384c-1.028.9-2.153,1.884-3.375,2.952-1.432,1.254-2.9,2.546-4.358,3.822l-.4.35c.479.03.964.043,1.451.043a24.15,24.15,0,0,0,17.126-7.092l-4.185-4.185A18.377,18.377,0,0,1,648.456,427.384Z" transform="translate(-617.555 -370.273)" fill="#2b388f"/>
        <path id="Path_973" data-name="Path 973" d="M618.938,253.446c-1.082-.411-2.164-.808-3.246-1.219q-4.263-1.594-8.513-3.194-3.716-1.4-7.431-2.777a.725.725,0,0,0-.456-.007c-1.245.456-2.484.926-3.729,1.395l-6.2,2.308q-4.146,1.554-8.292,3.116c-.45.169-.893.345-1.375.528a.5.5,0,0,0,.1.059q3.364,1.271,6.727,2.529,3.158,1.193,6.316,2.379c1.786.672,3.585,1.323,5.365,2.021.776.3,1.519.633,2.321.1.026-.013.052-.013.078-.026l8.057-3.031q2.307-.861,4.615-1.734c.547-.209,1.108-.4,1.669-.613a.691.691,0,0,1,.02.13c0,1.551-.007,3.1.007,4.641,0,.169-.085.209-.2.267a1.063,1.063,0,0,0-.45,1.493,4.077,4.077,0,0,0,.6.613,2.673,2.673,0,0,0-.547,1.565c-.039.358-.045.717-.071,1.076q-.02.274-.039.548a1.574,1.574,0,0,1,2.027-.007c-.026-.424-.059-.847-.091-1.271a3.02,3.02,0,0,0-.626-1.962c.052-.026.091-.052.13-.072a1.1,1.1,0,0,0,.006-2.021.357.357,0,0,1-.13-.274c-.013-1.571-.007-3.148-.013-4.719a.3.3,0,0,1,.228-.333c.958-.352,1.916-.717,2.875-1.076.189-.072.378-.15.632-.248A3.108,3.108,0,0,0,618.938,253.446Z" transform="translate(-575.075 -246.216)" fill="#f05a28"/>
        <path id="Path_974" data-name="Path 974" d="M600.207,286.279v-.417c-.119.038-.2.065-.285.1q-2.721,1.017-5.437,2.04-2.479.933-4.966,1.854c-.2.075-.4.151-.6.223a.71.71,0,0,1-.455,0c-.213-.078-.425-.156-.638-.237-.8-.3-1.607-.606-2.411-.907q-2.757-1.038-5.518-2.072l-2.7-1c-.005.1-.008.151-.008.2,0,2.188,0,4.373-.008,6.564a24.221,24.221,0,0,0-5.908,38.466l1.763-1.241c.756-.533,1.4-.985,1.62-1.144.479-.339.988-.705,1.534-1.093a18.321,18.321,0,0,1,7.854-31.331,18.051,18.051,0,0,1,3.047-.493c.458-.035.921-.051,1.391-.051a18.26,18.26,0,0,1,12.941,5.369h0l4.182-4.182a24.226,24.226,0,0,0-5.407-4.072Q600.211,289.565,600.207,286.279Z" transform="translate(-564.26 -273.989)" fill="#2b388f"/>
      </g>
    </g>
  </g>
</svg>
