<svg xmlns="http://www.w3.org/2000/svg" width="21.526" height="20.156" viewBox="0 0 21.526 20.156">
  <g id="Group_484" data-name="Group 484" transform="translate(-3547 3428.016)">
    <g id="Group_415" data-name="Group 415" transform="translate(3547 -3428.016)">
      <g id="Group_411" data-name="Group 411" transform="translate(0 0)">
        <path id="Path_922" data-name="Path 922" d="M1443.036,928.457l-1,1.492a8.066,8.066,0,0,1,0,12.535l1,1.492a9.845,9.845,0,0,0,0-15.519Zm-2,2.994-1.006,1.507a4.458,4.458,0,0,1,0,6.52l1.006,1.507a6.269,6.269,0,0,0,0-9.534Zm-4.978-5.1a1.477,1.477,0,0,0-1.375.613,38.788,38.788,0,0,1-4.636,4.348,2.366,2.366,0,0,1-1.406.421h-1.552a1.8,1.8,0,0,0-1.794,1.794v5.382a1.8,1.8,0,0,0,1.794,1.794h1.552a2.361,2.361,0,0,1,1.405.421,38.779,38.779,0,0,1,4.636,4.348,1.48,1.48,0,0,0,1.376.613,1.794,1.794,0,0,0,1.794-1.794V928.144A1.794,1.794,0,0,0,1436.058,926.35Z" transform="translate(-1425.295 -926.35)" fill="#fff" fill-rule="evenodd"/>
      </g>
    </g>
    <g id="Group_413" data-name="Group 413" transform="translate(3552.229 -3427.668) rotate(49)">
      <rect id="Rectangle_474" data-name="Rectangle 474" width="22.658" height="2.063" transform="translate(0 2.063)" fill="#fff"/>
      <rect id="Rectangle_475" data-name="Rectangle 475" width="22.658" height="2.063" transform="translate(0 0)" fill="#1a3a4f"/>
    </g>
  </g>
</svg>
