<svg xmlns="http://www.w3.org/2000/svg" width="55.335" height="20.963" viewBox="0 0 55.335 20.963">
  <path id="Intersection_1" data-name="Intersection 1" d="M46.912,35.994a25.382,25.382,0,0,0-6.576-4.874A2.761,2.761,0,0,1,39.1,29.2l.284-7.132a34.919,34.919,0,0,0-20.93-.365l-.122,6.977a1.785,1.785,0,0,1-1.3,1.88,23.489,23.489,0,0,0-6.742,4.64,2.118,2.118,0,0,1-3.171-.055l-5.3-5.485a2.119,2.119,0,0,1,.055-3.171,38.093,38.093,0,0,1,53.908.941,2.118,2.118,0,0,1-.056,3.171l-5.646,5.452a2.119,2.119,0,0,1-3.171-.054Z" transform="translate(-1.135 -15.771)"/>
</svg>
