<svg xmlns="http://www.w3.org/2000/svg" width="25.407" height="25.2" viewBox="0 0 25.407 25.2">
  <g id="icons" transform="translate(-306.762 -145.204)">
    <g id="user" transform="translate(306.762 145.204)">
      <ellipse id="Ellipse_27" data-name="Ellipse 27" cx="6.506" cy="7.807" rx="6.506" ry="7.807" transform="translate(6.197)" />
      <path id="Path_731" data-name="Path 731" d="M331.9,163.611a11.661,11.661,0,0,0-6.088-5.465,2.775,2.775,0,0,0-2.283.13,7.618,7.618,0,0,1-8.117,0,2.788,2.788,0,0,0-2.283,0,11.661,11.661,0,0,0-6.088,5.465,2.562,2.562,0,0,0,2.41,3.643h20.04A2.63,2.63,0,0,0,331.9,163.611Z" transform="translate(-306.762 -142.184)" />
    </g>
  </g>
</svg>
