<svg xmlns="http://www.w3.org/2000/svg" width="27.837" height="40.911" viewBox="0 0 27.837 40.911">
  <g id="Invitation" transform="translate(-1224.034 -859.182)">
    <path id="Path_877" data-name="Path 877" d="M1251.6,859.369a.782.782,0,0,0-.632-.177l-26.273,4.247h0a.782.782,0,0,0-.657.771v35.1a.782.782,0,0,0,.782.782h26.273a.782.782,0,0,0,.782-.782V859.964A.782.782,0,0,0,1251.6,859.369Zm-26,39.16v-18.1h2.942v10.36a.782.782,0,0,0,.782.782,2.564,2.564,0,0,1,2.561,2.561.782.782,0,0,0,.782.782h10.516a.782.782,0,0,0,.782-.782,2.564,2.564,0,0,1,2.558-2.561l.047,0h.014a.782.782,0,0,0,.782-.782V880.428h2.942v18.1Zm20.2-19.665h-2.642v-.626a1.327,1.327,0,0,0-2.029-1.126l-3.1,1.93a.779.779,0,0,0-.191-.018l-3.067-1.912a1.328,1.328,0,0,0-2.029,1.126v.626H1230.1v-5.481a4.16,4.16,0,0,0,3.255-3.21h9.128a4.158,4.158,0,0,0,3.313,3.22Zm-13.055,1.564v.945a1.327,1.327,0,0,0,2.029,1.126l2.123-1.324-1.686,4.686a.782.782,0,0,0,1.47.534l0,0,1.361-3.782,1.361,3.782a.782.782,0,1,0,1.474-.525l0-.005-1.633-4.537,1.884,1.175a1.327,1.327,0,0,0,2.029-1.126v-.945h2.642v9.641a4.137,4.137,0,0,0-3.327,3.28h-9.1a4.138,4.138,0,0,0-3.269-3.269v-9.652Zm14.618-1.564v-6.189a.782.782,0,0,0-.782-.782h-.014l-.047,0a2.572,2.572,0,0,1-2.557-2.516.782.782,0,0,0-.782-.769h-10.519a.782.782,0,0,0-.782.769,2.572,2.572,0,0,1-2.56,2.516.782.782,0,0,0-.782.782v6.188H1225.6V864.992h24.709v13.871Z" transform="translate(0 0)" fill="#fff"/>
  </g>
</svg>
