<svg id="telegram_social_media_network_chat" data-name="telegram social media network chat" xmlns="http://www.w3.org/2000/svg" width="33.073" height="29" viewBox="0 0 33.073 29">
  <path id="Path_758" data-name="Path 758" d="M946.456,430.145a2.722,2.722,0,0,0-2.771-.439L915.726,440.9a2.233,2.233,0,0,0,0,4.125l1.806.745a1.217,1.217,0,1,0,.944-2.244l0,0-1.342-.549L944.6,431.988a.268.268,0,0,1,.281,0,.293.293,0,0,1,.1.281l-5.016,23.407a.489.489,0,0,1-.317.366.476.476,0,0,1-.476-.073l-9.763-7.616,9.556-9.653a1.22,1.22,0,0,0-1.489-1.9l-14.01,8.3a1.22,1.22,0,1,0,1.221,2.1l5.895-3.478-2.868,2.917a2.442,2.442,0,0,0,.244,3.759l9.763,7.505a2.93,2.93,0,0,0,1.794.61,3.013,3.013,0,0,0,1.013-.183,2.893,2.893,0,0,0,1.855-2.136l4.979-23.383A2.722,2.722,0,0,0,946.456,430.145Z" transform="translate(-914.349 -429.507)" fill="#1a3a4f"/>
</svg>
