<svg xmlns="http://www.w3.org/2000/svg" width="25.084" height="26.957" viewBox="0 0 25.084 26.957">
  <path id="Path_733" data-name="Path 733" d="M496.8,155.642l-.506-.293a1.925,1.925,0,0,1,0-3.335l.506-.293a2.887,2.887,0,0,0,1.057-3.945l-.963-1.667a2.891,2.891,0,0,0-3.945-1.057l-.506.292a1.925,1.925,0,0,1-2.888-1.667v-.584a2.892,2.892,0,0,0-2.888-2.888h-1.925a2.892,2.892,0,0,0-2.888,2.888v.585a1.925,1.925,0,0,1-2.888,1.667l-.506-.293a2.893,2.893,0,0,0-3.946,1.057l-.963,1.667a2.887,2.887,0,0,0,1.057,3.945l.507.293a1.925,1.925,0,0,1,0,3.335l-.506.293a2.887,2.887,0,0,0-1.057,3.945l.963,1.667a2.892,2.892,0,0,0,3.945,1.057l.506-.292a1.925,1.925,0,0,1,2.888,1.667v.584a2.892,2.892,0,0,0,2.888,2.888h1.925a2.892,2.892,0,0,0,2.888-2.888v-.585a1.925,1.925,0,0,1,2.888-1.667l.506.293a2.893,2.893,0,0,0,3.945-1.057l.963-1.667A2.887,2.887,0,0,0,496.8,155.642ZM485.7,158.5a4.814,4.814,0,1,1,4.814-4.814A4.819,4.819,0,0,1,485.7,158.5Z" transform="translate(-473.162 -140.204)"/>
</svg>
