<svg id="Group_277" data-name="Group 277" xmlns="http://www.w3.org/2000/svg" width="42.498" height="42.499" viewBox="0 0 42.498 42.499">
  <g id="Group_273" data-name="Group 273" transform="translate(0)">
    <path id="Path_740" data-name="Path 740" d="M1088.984,468.225a21.249,21.249,0,1,1,21.249-21.25A21.273,21.273,0,0,1,1088.984,468.225Z" transform="translate(-1067.734 -425.726)" fill="#60fc7c"/>
  </g>
  <g id="Group_276" data-name="Group 276" transform="translate(9.423 7.417)">
    <g id="Group_274" data-name="Group 274">
      <path id="Path_741" data-name="Path 741" d="M1092.666,435.253a12.828,12.828,0,0,0-10.781,19.782l-1.949,4.293a1.12,1.12,0,0,0,1.021,1.583,1.106,1.106,0,0,0,.3-.04l5.37-1.473a12.829,12.829,0,1,0,6.043-24.145Zm0,23.418a10.58,10.58,0,0,1-5.332-1.442,1.12,1.12,0,0,0-.565-.153,1.1,1.1,0,0,0-.3.041l-3.508.962,1.222-2.692a1.121,1.121,0,0,0-.112-1.119,10.587,10.587,0,1,1,8.592,4.4Z" transform="translate(-1079.837 -435.253)" fill="#fff" fill-rule="evenodd"/>
    </g>
    <g id="Group_275" data-name="Group 275" transform="translate(6.594 6.97)">
      <path id="Path_742" data-name="Path 742" d="M1099.474,451.985a2.192,2.192,0,0,0-1.869-.421c-.486.2-.8.958-1.11,1.347a.466.466,0,0,1-.6.131,8.471,8.471,0,0,1-4.225-3.62.519.519,0,0,1,.065-.708,2.846,2.846,0,0,0,.768-1.247,2.719,2.719,0,0,0-.343-1.475,3.494,3.494,0,0,0-1.089-1.641,1.492,1.492,0,0,0-1.621.241,3.29,3.29,0,0,0-1.14,2.606,3.683,3.683,0,0,0,.1.828,6.847,6.847,0,0,0,.793,1.828,14.491,14.491,0,0,0,.828,1.26,12.8,12.8,0,0,0,3.592,3.335,10.874,10.874,0,0,0,2.241,1.065,4.967,4.967,0,0,0,2.608.412,3.154,3.154,0,0,0,2.364-1.759,1.526,1.526,0,0,0,.11-.9C1100.811,452.652,1099.974,452.284,1099.474,451.985Z" transform="translate(-1088.307 -444.206)" fill="#fff" fill-rule="evenodd"/>
    </g>
  </g>
</svg>
