<svg xmlns="http://www.w3.org/2000/svg" width="42.499" height="42.499" viewBox="0 0 42.499 42.499">
  <g id="Group_269" data-name="Group 269" transform="translate(0)">
    <g id="Group_262" data-name="Group 262" transform="translate(0)">
      <path id="Path_732" data-name="Path 732" d="M1160.335,470.016a21.249,21.249,0,1,1,21.249-21.249A21.273,21.273,0,0,1,1160.335,470.016Z" transform="translate(-1139.085 -427.517)" fill="#3cf"/>
    </g>
    <g id="Group_268" data-name="Group 268" transform="translate(8.788 11.049)">
      <g id="Group_263" data-name="Group 263">
        <path id="Path_733" data-name="Path 733" d="M1175.046,444.154a10.2,10.2,0,0,1-2.5.714c.4-.067,1-.8,1.235-1.092a4.585,4.585,0,0,0,.833-1.517c.022-.044.038-.1,0-.131a.144.144,0,0,0-.133.011,12.759,12.759,0,0,1-2.971,1.138.2.2,0,0,1-.205-.055,2.471,2.471,0,0,0-.259-.266,5.266,5.266,0,0,0-1.44-.882,5.017,5.017,0,0,0-2.208-.356,5.3,5.3,0,0,0-2.1.592,5.4,5.4,0,0,0-1.689,1.38,5.186,5.186,0,0,0-1.009,2.021,5.473,5.473,0,0,0-.054,2.134c.016.119.005.135-.1.119a15.874,15.874,0,0,1-10.212-5.2c-.119-.135-.184-.135-.281.011a5.178,5.178,0,0,0,.882,6.118c.2.19.406.379.627.552a5.18,5.18,0,0,1-1.97-.552c-.12-.076-.179-.032-.19.1a3.128,3.128,0,0,0,.032.585,5.237,5.237,0,0,0,3.228,4.174,3.03,3.03,0,0,0,.655.2,5.814,5.814,0,0,1-1.933.06c-.141-.027-.195.044-.141.179a5.437,5.437,0,0,0,4.061,3.4c.184.032.368.032.553.076-.011.016-.022.016-.033.033-.456.7-2.037,1.212-2.773,1.47a9.933,9.933,0,0,1-4.212.539c-.226-.033-.274-.031-.335,0s-.008.093.065.151c.287.19.579.358.877.52a13.9,13.9,0,0,0,2.815,1.127,15,15,0,0,0,14.558-3.4c2.984-2.964,4.029-7.052,4.029-11.144,0-.16.189-.249.3-.333a9.819,9.819,0,0,0,1.972-2.061.6.6,0,0,0,.122-.395v-.021C1175.139,444.089,1175.147,444.108,1175.046,444.154Z" transform="translate(-1150.372 -441.709)" fill="#fff"/>
      </g>
      <g id="Group_264" data-name="Group 264" transform="translate(7.355 20.313)">
        <path id="Path_734" data-name="Path 734" d="M1159.819,467.8Z" transform="translate(-1159.819 -467.798)" fill="#fff" fill-rule="evenodd"/>
      </g>
      <g id="Group_265" data-name="Group 265" transform="translate(7.166 20.313)">
        <path id="Path_735" data-name="Path 735" d="M1159.765,467.8c-.033,0-.409,0,0,0Z" transform="translate(-1159.576 -467.798)" fill="#fff" fill-rule="evenodd"/>
      </g>
      <g id="Group_266" data-name="Group 266" transform="translate(8.189 20.316)">
        <path id="Path_736" data-name="Path 736" d="M1160.89,467.821c0-.041.439,0,0,0C1160.89,467.8,1160.944,467.821,1160.89,467.821Z" transform="translate(-1160.89 -467.802)" fill="#fff" fill-rule="evenodd"/>
      </g>
      <g id="Group_267" data-name="Group 267" transform="translate(16.847 0.031)">
        <path id="Path_737" data-name="Path 737" d="M1172.113,441.748a.091.091,0,0,1-.1,0Z" transform="translate(-1172.01 -441.748)" fill="#fff" fill-rule="evenodd"/>
      </g>
    </g>
  </g>
</svg>
