<svg xmlns="http://www.w3.org/2000/svg" width="31.156" height="32.887" viewBox="0 0 31.156 32.887">
  <path id="Path_753" data-name="Path 753" d="M385.207,624.021a6.058,6.058,0,0,1-12.116,0,5.64,5.64,0,0,1,.19-1.437l-9.07-4.518a5.989,5.989,0,0,1-4.1,1.627,6.058,6.058,0,1,1,0-12.116,5.988,5.988,0,0,1,4.1,1.627l9.07-4.518a5.643,5.643,0,0,1-.19-1.437,6.058,6.058,0,1,1,6.058,6.058,5.989,5.989,0,0,1-4.1-1.627l-9.07,4.517a5.521,5.521,0,0,1,0,2.873l9.07,4.518a5.989,5.989,0,0,1,4.1-1.627A6.058,6.058,0,0,1,385.207,624.021Z" transform="translate(-354.051 -597.192)"/>
</svg>
