<svg id="Group_284" data-name="Group 284" xmlns="http://www.w3.org/2000/svg" width="42.427" height="42.426" viewBox="0 0 42.427 42.426">
  <g id="Group_282" data-name="Group 282" transform="translate(0 0)">
    <g id="Group_279" data-name="Group 279">
      <path id="Path_744" data-name="Path 744" d="M1231.7,473.527a21.213,21.213,0,1,1,21.213-21.213A21.237,21.237,0,0,1,1231.7,473.527Z" transform="translate(-1210.482 -431.101)" fill="#007ab9"/>
    </g>
    <g id="Group_281" data-name="Group 281" transform="translate(11.112 16.334)">
      <g id="Group_280" data-name="Group 280">
        <path id="Path_745" data-name="Path 745" d="M1246.849,458.574V466.5a.355.355,0,0,1-.355.354h-4.089a.355.355,0,0,1-.355-.354v-7.366c0-1.939-.692-3.263-2.43-3.263a2.624,2.624,0,0,0-2.46,1.755,3.274,3.274,0,0,0-.159,1.169v7.7a.355.355,0,0,1-.355.354h-4.087a.353.353,0,0,1-.354-.355c.009-1.961.051-11.479.009-13.716a.352.352,0,0,1,.354-.359h4.079a.355.355,0,0,1,.355.354v1.69c-.01.016-.023.032-.032.048H1237v-.048a4.763,4.763,0,0,1,4.324-2.383c3.156,0,5.523,2.062,5.523,6.493Zm-21.741,8.275h4.088a.354.354,0,0,0,.354-.354V452.774a.354.354,0,0,0-.354-.354h-4.088a.354.354,0,0,0-.354.354V466.5A.354.354,0,0,0,1225.108,466.85Z" transform="translate(-1224.754 -452.081)" fill="#fff"/>
      </g>
    </g>
  </g>
  <g id="Group_283" data-name="Group 283" transform="translate(10.798 9.701)">
    <ellipse id="Ellipse_35" data-name="Ellipse 35" cx="2.568" cy="2.568" rx="2.568" ry="2.568" fill="#fff"/>
  </g>
</svg>
