<svg id="Group_272" data-name="Group 272" xmlns="http://www.w3.org/2000/svg" width="42.498" height="42.499" viewBox="0 0 42.498 42.499">
  <g id="Group_270" data-name="Group 270" transform="translate(0 0)">
    <path id="Path_738" data-name="Path 738" d="M946.282,471.808a21.249,21.249,0,1,1,21.249-21.249A21.273,21.273,0,0,1,946.282,471.808Z" transform="translate(-925.032 -429.309)" fill="#3c5a99"/>
  </g>
  <g id="Group_271" data-name="Group 271" transform="translate(15.309 8.512)">
    <path id="Path_739" data-name="Path 739" d="M947.3,453.079V465.4a.321.321,0,0,0,.321.321H952.2a.321.321,0,0,0,.321-.321V452.879h3.315a.321.321,0,0,0,.32-.294l.318-3.771a.32.32,0,0,0-.319-.348h-3.634V445.79a1.135,1.135,0,0,1,1.135-1.135h2.555a.32.32,0,0,0,.321-.321v-3.771a.321.321,0,0,0-.321-.321h-4.318a4.589,4.589,0,0,0-4.588,4.588v3.636h-2.287a.321.321,0,0,0-.321.321v3.771a.321.321,0,0,0,.321.321H947.3Z" transform="translate(-944.695 -440.242)" fill="#fff" fill-rule="evenodd"/>
  </g>
</svg>
