<svg xmlns="http://www.w3.org/2000/svg" width="22.673" height="20.783" viewBox="0 0 22.673 20.783">
  <g id="Group_485" data-name="Group 485" transform="translate(-1425.295 -926.35)">
    <g id="Group_411" data-name="Group 411" transform="translate(1425.295 926.35)">
      <path id="Path_922" data-name="Path 922" d="M1443.98,928.569l-1.049,1.572a8.5,8.5,0,0,1,0,13.2l1.049,1.571a10.369,10.369,0,0,0,0-16.345Zm-2.106,3.154-1.06,1.587a4.7,4.7,0,0,1,0,6.867l1.06,1.587a6.6,6.6,0,0,0,0-10.041Zm-5.243-5.373a1.556,1.556,0,0,0-1.448.646,40.85,40.85,0,0,1-4.883,4.579,2.492,2.492,0,0,1-1.481.443h-1.634a1.89,1.89,0,0,0-1.889,1.89v5.668a1.89,1.89,0,0,0,1.889,1.889h1.634a2.487,2.487,0,0,1,1.48.443,40.84,40.84,0,0,1,4.883,4.58,1.559,1.559,0,0,0,1.449.645,1.89,1.89,0,0,0,1.89-1.89v-17A1.89,1.89,0,0,0,1436.631,926.35Z" transform="translate(-1425.295 -926.35)" fill="#fff" fill-rule="evenodd"/>
    </g>
  </g>
</svg>
