<svg xmlns="http://www.w3.org/2000/svg" width="36.968" height="36.996" viewBox="0 0 36.968 36.996">
  <path id="Path_750" data-name="Path 750" d="M498.328,445.09a2.886,2.886,0,1,1-4.33-2.5v-7.965h2.886v7.965A2.887,2.887,0,0,1,498.328,445.09Zm17.052,8.01-14.815,9.07V444.03Zm-11.928,3.919,6.4-3.919-6.4-3.919ZM481.3,445.09a14.143,14.143,0,0,1,28.287,0q0,.532-.039,1.054l2.711,1.66a17.252,17.252,0,0,0,.215-2.713,16.918,16.918,0,0,0-4.988-12.042c-.121-.121-.244-.239-.368-.356l1.2-1.434,1.959,1.634,1.848-2.217-6.135-5.117-1.849,2.217,1.959,1.634-1.238,1.484a16.862,16.862,0,0,0-7.972-2.773v-2.947H494v2.947a17.03,17.03,0,0,0,1.443,34,17.291,17.291,0,0,0,2.237-.146v-2.918A14.146,14.146,0,0,1,481.3,445.09Z" transform="translate(-478.412 -425.174)" fill="#fff"/>
</svg>
