<svg id="Group_180" data-name="Group 180" xmlns="http://www.w3.org/2000/svg" width="34.925" height="34.925" viewBox="0 0 34.925 34.925">
  <circle id="Ellipse_24" data-name="Ellipse 24" cx="17.463" cy="17.463" r="17.463" transform="translate(0 0)" fill="#3cf"/>
  <path id="Path_705" data-name="Path 705" d="M388.535,216.941a7.856,7.856,0,0,1-1.926.549c.31-.052.765-.613.948-.84a3.521,3.521,0,0,0,.639-1.166c.017-.033.03-.075,0-.1a.108.108,0,0,0-.1.009,9.853,9.853,0,0,1-2.284.874.152.152,0,0,1-.158-.042,1.781,1.781,0,0,0-.2-.2,4.014,4.014,0,0,0-1.106-.678,3.853,3.853,0,0,0-1.7-.273,4.055,4.055,0,0,0-1.61.455,4.148,4.148,0,0,0-1.3,1.06,3.98,3.98,0,0,0-.776,1.554,4.224,4.224,0,0,0-.041,1.64c.013.092,0,.1-.078.092A12.2,12.2,0,0,1,371,215.876c-.092-.1-.141-.1-.216.008a3.979,3.979,0,0,0,.678,4.7c.154.145.312.291.483.423a3.979,3.979,0,0,1-1.514-.423c-.092-.058-.138-.026-.146.079a2.341,2.341,0,0,0,.025.449,4.024,4.024,0,0,0,2.481,3.208,2.4,2.4,0,0,0,.5.154,4.5,4.5,0,0,1-1.485.045c-.109-.021-.15.034-.109.137a4.176,4.176,0,0,0,3.12,2.613c.141.025.283.025.425.058-.009.013-.018.013-.026.025a4.945,4.945,0,0,1-2.131,1.13,7.627,7.627,0,0,1-3.236.414c-.175-.026-.211-.024-.258,0s-.007.071.049.117c.221.146.445.274.674.4a10.693,10.693,0,0,0,2.163.866,11.525,11.525,0,0,0,11.187-2.616,11.742,11.742,0,0,0,3.1-8.564c0-.123.145-.192.231-.256a7.574,7.574,0,0,0,1.523-1.583.485.485,0,0,0,.1-.3v-.016C388.614,216.891,388.613,216.906,388.535,216.941Z" transform="translate(-361.425 -205.462)" fill="#fff"/>
</svg>
