<svg xmlns="http://www.w3.org/2000/svg" width="88.959" height="69.897" viewBox="0 0 88.959 69.897">
  <g id="Group_392" data-name="Group 392" transform="translate(-1519.054 -722.319)">
    <g id="Group_389" data-name="Group 389">
      <path id="Path_918" data-name="Path 918" d="M1585.774,792.216h-41.3a25.406,25.406,0,0,1-8.352-49.4,28.589,28.589,0,0,1,55.919,5.84,22.231,22.231,0,0,1-6.264,43.564Zm-22.24-63.542a22.1,22.1,0,0,0-21.685,17.353,3.18,3.18,0,0,1-2.283,2.373,19.05,19.05,0,0,0,4.9,37.462h41.3a15.876,15.876,0,0,0,2.637-31.533,3.173,3.173,0,0,1-2.65-3.236c0-.046.009-.214.013-.26A22.25,22.25,0,0,0,1563.534,728.674Z" fill="#c7c7c7"/>
    </g>
    <g id="Group_390" data-name="Group 390">
      <path id="Path_919" data-name="Path 919" d="M1563.534,779.507a3.175,3.175,0,0,1-3.177-3.177V744.559a3.177,3.177,0,0,1,6.354,0V776.33A3.175,3.175,0,0,1,1563.534,779.507Z" fill="#c7c7c7"/>
    </g>
    <g id="Group_391" data-name="Group 391">
      <path id="Path_920" data-name="Path 920" d="M1576.242,760.445a3.167,3.167,0,0,1-2.246-.931l-10.462-10.462-10.462,10.462a3.177,3.177,0,0,1-4.493-4.493l12.708-12.708a3.177,3.177,0,0,1,4.493,0l12.709,12.708a3.178,3.178,0,0,1-2.247,5.424Z" fill="#c7c7c7"/>
    </g>
  </g>
</svg>
